<?xml version="1.0" encoding="UTF-8" standalone="no"?>
<svg width="42px" height="38px" viewBox="0 0 42 38" version="1.1" xmlns="http://www.w3.org/2000/svg" xmlns:xlink="http://www.w3.org/1999/xlink">
    <!-- Generator: Sketch 42 (36781) - http://www.bohemiancoding.com/sketch -->
    <title>Group 31</title>
    <desc>Created with Sketch.</desc>
    <defs></defs>
    <g id="03_Lykke_Corp" stroke="none" stroke-width="1" fill="none" fill-rule="evenodd">
        <g id="03_lykke_corp/05a_invest" transform="translate(-678.000000, -3094.000000)">
            <g id="Group-31" transform="translate(675.000000, 3089.000000)">
                <rect id="Rectangle-3" fill="#D8D8D8" opacity="0" x="0" y="0" width="48" height="48"></rect>
                <path d="M34,35.1010742 L34,40.0083874 C34,41.1083246 33.1101074,42 32.0002927,42 L5.99970728,42 C4.89529944,42 4,41.1021596 4,40.008383 L4,7.99161703 C4,6.89167732 4.88989258,6 5.99970728,6 L32.0002927,6 C33.1047006,6 34,6.90100977 34,8.00887844 L34,20" id="Rectangle-7" stroke="#40474F" stroke-width="2" stroke-linecap="round" stroke-linejoin="round"></path>
                <polyline id="Path-6" stroke="#40474F" stroke-width="2" stroke-linecap="round" stroke-linejoin="round" points="9 34 17.0121156 27.5176123 24.6149223 33.3359505 28.0360271 23.8623286 34.6482642 28.3688747 42 20"></polyline>
                <polyline id="Path-7" stroke="#40474F" stroke-width="2" stroke-linecap="round" stroke-linejoin="round" transform="translate(42.212358, 20.022417) rotate(-40.000000) translate(-42.212358, -20.022417) " points="40.7649093 17.0435347 43.6598067 20.0692916 40.8574386 23.0012984"></polyline>
                <path d="M11,14 L21,14" id="Path-125-Copy-4" stroke="#40474F" stroke-width="2" stroke-linecap="round"></path>
                <path d="M11,19 L21,19" id="Path-125-Copy-5" stroke="#40474F" stroke-width="2" stroke-linecap="round"></path>
            </g>
        </g>
    </g>
</svg>