<?xml version="1.0" encoding="UTF-8" standalone="no"?>
<svg width="40px" height="40px" viewBox="0 0 40 40" version="1.1" xmlns="http://www.w3.org/2000/svg" xmlns:xlink="http://www.w3.org/1999/xlink">
    <!-- Generator: Sketch 42 (36781) - http://www.bohemiancoding.com/sketch -->
    <title>Group 34</title>
    <desc>Created with Sketch.</desc>
    <defs>
        <rect id="path-1" x="26" y="37" width="18" height="7" rx="3"></rect>
        <mask id="mask-2" maskContentUnits="userSpaceOnUse" maskUnits="objectBoundingBox" x="0" y="0" width="18" height="7" fill="white">
            <use xlink:href="#path-1"></use>
        </mask>
    </defs>
    <g id="03_Lykke_Corp" stroke="none" stroke-width="1" fill="none" fill-rule="evenodd">
        <g id="03_lykke_corp/05a_invest" transform="translate(-279.000000, -3093.000000)">
            <g id="Group-34" transform="translate(275.000000, 3089.000000)">
                <rect id="Rectangle-3" fill="#D8D8D8" opacity="0" x="0" y="0" width="48" height="48"></rect>
                <path d="M12,13 L28,13" id="Path-125" stroke="#40474F" stroke-width="2" stroke-linecap="round"></path>
                <path d="M12,26 L22,26" id="Path-125-Copy-4" stroke="#40474F" stroke-width="2" stroke-linecap="round"></path>
                <path d="M12,31 L22,31" id="Path-125-Copy-5" stroke="#40474F" stroke-width="2" stroke-linecap="round"></path>
                <path d="M37.0232011,32.7092021 L39.9215671,38.022873 M30.0657345,38.0461535 L32.9704823,32.7207824" id="Triangle" stroke="#40474F" stroke-width="2" fill="#FFFFFF"></path>
                <ellipse id="Oval-2" stroke="#40474F" stroke-width="2" stroke-linecap="round" cx="35" cy="29" rx="4" ry="4"></ellipse>
                <use id="Rectangle-26-Copy" stroke="#40474F" mask="url(#mask-2)" stroke-width="4" xlink:href="#path-1"></use>
                <path d="M21,41 L6.99443985,41 C5.89294114,41 5,40.1101074 5,39.0002927 L5,6.99970728 C5,5.89529944 5.89784041,5 6.99161703,5 L33.008383,5 C34.1083227,5 35,5.89150867 35,6.99697573 L35,19" id="Rectangle-6" stroke="#40474F" stroke-width="2" stroke-linecap="round" stroke-linejoin="round"></path>
            </g>
        </g>
    </g>
</svg>