<?xml version="1.0" encoding="UTF-8" standalone="no"?>
<svg width="34px" height="38px" viewBox="0 0 34 38" version="1.1" xmlns="http://www.w3.org/2000/svg" xmlns:xlink="http://www.w3.org/1999/xlink">
    <!-- Generator: Sketch 42 (36781) - http://www.bohemiancoding.com/sketch -->
    <title>Group 33</title>
    <desc>Created with Sketch.</desc>
    <defs>
        <path d="M24.7053562,37.296984 C24.3170911,37.685249 23.5636275,38 23.0033715,38 L2.99765987,38 C1.34209804,38 0,36.6475599 0,35.0023401 L0,2.99765987 C0,1.34209804 1.35244012,0 2.99765987,0 L31.0023401,0 C32.657902,0 34,1.35244012 34,2.99765987 L34,27.0066967 C34,27.5565754 33.6898268,28.3125133 33.296984,28.7053562 L24.7053562,37.296984 Z" id="path-1"></path>
        <mask id="mask-2" maskContentUnits="userSpaceOnUse" maskUnits="objectBoundingBox" x="0" y="0" width="34" height="38" fill="white">
            <use xlink:href="#path-1"></use>
        </mask>
        <path d="M22,38.0012144 L22,28.9987856 C22,27.3426021 23.3422643,26 24.9987856,26 L34.0012144,26" id="path-3"></path>
        <mask id="mask-4" maskContentUnits="userSpaceOnUse" maskUnits="objectBoundingBox" x="0" y="0" width="12.0012144" height="12.0012144" fill="white">
            <use xlink:href="#path-3"></use>
        </mask>
    </defs>
    <g id="03_Lykke_Corp" stroke="none" stroke-width="1" fill="none" fill-rule="evenodd">
        <g id="03_lykke_corp/05a_invest" transform="translate(-282.000000, -3193.000000)">
            <g id="Group-33" transform="translate(275.000000, 3188.000000)">
                <rect id="Rectangle-3" fill="#D8D8D8" opacity="0" x="0" y="0" width="48" height="48"></rect>
                <g id="Group-25" transform="translate(7.000000, 5.000000)" stroke="#40474F">
                    <g id="lykke_placement_icn">
                        <g id="Group-3">
                            <use id="Rectangle-26-Copy-4" mask="url(#mask-2)" stroke-width="4" xlink:href="#path-1"></use>
                            <use id="Rectangle-26" mask="url(#mask-4)" stroke-width="4" stroke-linecap="square" xlink:href="#path-3"></use>
                            <path d="M8,24 L20.6699219,23.96875" id="Path-125-Copy-2" stroke-width="2" stroke-linecap="round"></path>
                            <path d="M8,29 L18,29" id="Path-125-Copy-6" stroke-width="2" stroke-linecap="round"></path>
                            <path d="M10,15 L14,15" id="Path-125-Copy-6" stroke-width="2" stroke-linecap="round"></path>
                        </g>
                    </g>
                    <polyline id="Path-5" stroke-width="2" stroke-linecap="round" stroke-linejoin="round" points="8 17.934082 12 7 16 17.934082"></polyline>
                </g>
            </g>
        </g>
    </g>
</svg>