<?xml version="1.0" encoding="UTF-8" standalone="no"?>
<svg width="42px" height="42px" viewBox="0 0 42 42" version="1.1" xmlns="http://www.w3.org/2000/svg" xmlns:xlink="http://www.w3.org/1999/xlink">
    <!-- Generator: Sketch 42 (36781) - http://www.bohemiancoding.com/sketch -->
    <title>Group 30</title>
    <desc>Created with Sketch.</desc>
    <defs></defs>
    <g id="03_Lykke_Corp" stroke="none" stroke-width="1" fill="none" fill-rule="evenodd">
        <g id="03_lykke_corp/05a_invest" transform="translate(-678.000000, -3191.000000)">
            <g id="Group-30" transform="translate(675.000000, 3188.000000)">
                <rect id="Rectangle-3" fill="#D8D8D8" opacity="0" x="0" y="0" width="48" height="48"></rect>
                <g id="Group-29" transform="translate(4.000000, 4.000000)" stroke="#40474F" stroke-width="2">
                    <g id="blockchain-copy-5">
                        <path d="M20,40 C31.045695,40 40,31.045695 40,20 C40,8.954305 31.045695,0 20,0 C8.954305,0 0,8.954305 0,20 C0,31.045695 8.954305,40 20,40 Z" id="Oval"></path>
                    </g>
                    <polygon id="Rectangle-7-Copy-5" stroke-linecap="round" stroke-linejoin="round" transform="translate(19.849242, 19.849242) rotate(45.000000) translate(-19.849242, -19.849242) " points="14.8492424 20.0677483 19.8492424 6.8492424 24.8492424 19.8663322 19.9400627 32.8492424"></polygon>
                    <g id="Group-20" transform="translate(20.500000, 20.500000) rotate(-45.000000) translate(-20.500000, -20.500000) translate(19.000000, 5.000000)" stroke-linecap="round">
                        <path d="M1,-4.4408921e-14 L1,3.09887695" id="Path-125-Copy-8"></path>
                        <path d="M1,27 L1,30" id="Path-125-Copy-9"></path>
                    </g>
                </g>
            </g>
        </g>
    </g>
</svg>