<?xml version="1.0" encoding="utf-8"?>
<!-- Generator: Adobe Illustrator 19.0.0, SVG Export Plug-In . SVG Version: 6.00 Build 0)  -->
<svg version="1.2" baseProfile="tiny" id="Слой_1"
	 xmlns="http://www.w3.org/2000/svg" xmlns:xlink="http://www.w3.org/1999/xlink" x="0px" y="0px" viewBox="0 0 74 75"
	 xml:space="preserve">
<g>
	<path fill="none" stroke="#ab00ff" stroke-width="2" stroke-linecap="round" stroke-linejoin="round" stroke-miterlimit="10" d="
		M34.1,52l-2.1-11.8C32,39.6,32.4,39,33,39H41c0.6,0,1.1,0.6,1,1.2L39.9,52"/>
	<path fill="none" stroke="#3E4C5F" stroke-width="2" stroke-miterlimit="10" d="M47,60c0,1.1-0.9,2-2,2H29c-1.1,0-2-0.9-2-2v-2
		c0-1.1,0.9-2,2-2h16c1.1,0,2,0.9,2,2V60z"/>
	<path fill="none" stroke="#3E4C5F" stroke-width="2" stroke-miterlimit="10" d="M47,66c0,1.1-0.9,2-2,2H29c-1.1,0-2-0.9-2-2v-2
		c0-1.1,0.9-2,2-2h16c1.1,0,2,0.9,2,2V66z"/>
	<path fill="none" stroke="#3E4C5F" stroke-width="2" stroke-miterlimit="10" d="M42,69c0,2.8-2.2,5-5,5s-5-2.2-5-5"/>
	
		<line fill="none" stroke="#3E4C5F" stroke-width="2" stroke-linecap="round" stroke-miterlimit="10" x1="37" y1="8.7" x2="37" y2="1"/>
	
		<line fill="none" stroke="#3E4C5F" stroke-width="2" stroke-linecap="round" stroke-miterlimit="10" x1="65.3" y1="35.7" x2="73" y2="35.7"/>
	
		<line fill="none" stroke="#3E4C5F" stroke-width="2" stroke-linecap="round" stroke-miterlimit="10" x1="1" y1="35.7" x2="8.7" y2="35.7"/>
	
		<line fill="none" stroke="#3E4C5F" stroke-width="2" stroke-linecap="round" stroke-miterlimit="10" x1="10.6" y1="9.9" x2="16.1" y2="15.3"/>
	
		<line fill="none" stroke="#3E4C5F" stroke-width="2" stroke-linecap="round" stroke-miterlimit="10" x1="61.5" y1="8.1" x2="56.1" y2="13.5"/>
	<path fill="none" stroke="#ab00ff" stroke-width="2" stroke-linecap="round" stroke-linejoin="round" stroke-miterlimit="10" d="
		M22.9,37c0-7.8,6.3-14.1,14.1-14.1"/>
	<path fill="none" stroke="#3E4C5F" stroke-width="2" stroke-miterlimit="10" d="M44.9,56c7.4-3.1,12.7-10.4,12.7-19
		c0-11.4-9.2-20.6-20.6-20.6S16.4,25.6,16.4,37c0,8.6,5.2,15.9,12.7,19H44.9z"/>
</g>
</svg>
