<?xml version="1.0" encoding="utf-8"?>
<!-- Generator: Adobe Illustrator 19.0.0, SVG Export Plug-In . SVG Version: 6.00 Build 0)  -->
<svg version="1.2" baseProfile="tiny" id="Слой_1"
	 xmlns="http://www.w3.org/2000/svg" xmlns:xlink="http://www.w3.org/1999/xlink" x="0px" y="0px" viewBox="0 0 79.2 77.9"
	 xml:space="preserve">
<g id="XMLID_15_">
	<path id="XMLID_18_" fill="none" stroke="#3E4C5F" stroke-width="2" stroke-linecap="round" stroke-miterlimit="10" d="M50.7,64.2
		v-2c0-6.5-13.1-7.4-13.1-10.5c0-4.3,4.8-3.1,4.8-13.5c0-8.6-6.3-9.9-9.7-9.9c-3.4,0-9.7,1.4-9.7,9.9c0,10.4,4.8,9.2,4.8,13.5
		c0,3.1-13.1,4-13.1,10.5v2"/>
	
		<polyline id="XMLID_17_" fill="none" stroke="#ab00ff" stroke-width="2" stroke-linecap="round" stroke-linejoin="round" stroke-miterlimit="10" points="
		28.1,57.8 32.8,61.7 37.4,57.8 	"/>
	<path id="XMLID_16_" fill="none" stroke="#3E4C5F" stroke-width="2" stroke-miterlimit="10" d="M23.4,36.8c2.6-1.9,7.9-4.4,7.8,0.9
		c2-0.2,3.9-0.2,7-1.7c1.1-0.5,3.9,0,3.9,0"/>
</g>
<g id="XMLID_2_">
	
		<path id="XMLID_10_" fill="none" stroke="#3E4C5F" stroke-width="2" stroke-linecap="round" stroke-linejoin="round" stroke-miterlimit="10" d="
		M33.5,12.9"/>
	
		<circle id="XMLID_7_" fill="none" stroke="#ab00ff" stroke-width="2" stroke-linecap="round" stroke-linejoin="round" stroke-miterlimit="10" cx="60.6" cy="18.6" r="17.6"/>
	<g id="XMLID_42_">
		<path id="XMLID_21_" fill="#ab00ff" d="M60.8,27c-2.5-0.1-4.4-1.2-5.6-2.6l1.2-1.5c1,1.1,2.4,2.1,4.4,2.3v-5.9
			c-2.5-0.7-5.1-1.5-5.1-4.5c0-2.5,2.1-4.3,5.1-4.5V8h1.5v2.3c2,0.2,3.6,1,4.8,2.2L65.9,14c-1-1-2.2-1.7-3.6-1.9v5.3
			c2.5,0.7,5.2,1.7,5.2,4.8c0,2.2-1.4,4.5-5.2,4.8v2.2h-1.5V27z M60.8,17v-5c-1.8,0.1-3,1.1-3,2.6C57.8,16,59.2,16.5,60.8,17z
			 M62.3,19.7v5.5c2.3-0.2,3.1-1.6,3.1-2.8C65.4,20.8,64,20.2,62.3,19.7z"/>
	</g>
	
		<path id="XMLID_3_" fill="none" stroke="#3E4C5F" stroke-width="2" stroke-linecap="round" stroke-linejoin="round" stroke-miterlimit="10" d="
		M38.5,12.2c-1.6-0.2-3.3-0.4-5-0.4C15.6,11.8,1,26.4,1,44.3s14.6,32.5,32.5,32.5S66,62.3,66,44.3c0-1.1-0.1-2.2-0.2-3.3"/>
</g>
</svg>
