<?xml version="1.0" encoding="utf-8"?>
<!-- Generator: Adobe Illustrator 19.0.0, SVG Export Plug-In . SVG Version: 6.00 Build 0)  -->
<svg version="1.2" baseProfile="tiny" id="Слой_1"
	 xmlns="http://www.w3.org/2000/svg" xmlns:xlink="http://www.w3.org/1999/xlink" x="0px" y="0px" viewBox="0 0 63.9 71.3"
	 xml:space="preserve">
<g>
	<path fill="none" stroke="#3E4C5F" stroke-width="2" stroke-miterlimit="10" d="M62,10.7c-0.1-0.9-0.8-1.6-1.6-1.9L32.5,1.1
		c-0.4-0.1-0.8-0.1-1.2,0L3.5,8.8c-0.9,0.2-1.5,1-1.6,1.9C1.7,11.9-2,39.3,7.4,52.9c9.4,13.6,23.4,17.1,24,17.3
		c0.2,0,0.4,0.1,0.5,0.1c0.2,0,0.4,0,0.5-0.1c0.6-0.1,14.5-3.6,24-17.3C65.9,39.3,62.2,11.9,62,10.7z"/>
	<g>
		
			<line fill="none" stroke="#ab00ff" stroke-width="2" stroke-linecap="round" stroke-linejoin="round" stroke-miterlimit="10" x1="55.6" y1="13.3" x2="32.5" y2="6.9"/>
		<path fill="none" stroke="#ab00ff" stroke-width="2" stroke-linecap="round" stroke-linejoin="round" stroke-miterlimit="10" d="
			M6.9,14.9c-0.1,1-3.2,23.8,4.7,35.1C19.5,61.4,31,64.3,31.5,64.4c0.1,0,0.3,0.1,0.4,0.1c0.1,0,0.3,0,0.4-0.1"/>
	</g>
	<path fill="none" stroke="#3E4C5F" stroke-width="2" stroke-miterlimit="10" d="M35,31H25V21h10c2.8,0,5,2.2,5,5v0
		C40,28.8,37.8,31,35,31z"/>
	<path fill="none" stroke="#3E4C5F" stroke-width="2" stroke-miterlimit="10" d="M37,45H25V31h12c3.9,0,7,3.1,7,7v0
		C44,41.9,40.9,45,37,45z"/>
	<line fill="none" stroke="#3E4C5F" stroke-width="2" stroke-miterlimit="10" x1="21.3" y1="21" x2="28.3" y2="21"/>
	<line fill="none" stroke="#3E4C5F" stroke-width="2" stroke-miterlimit="10" x1="28" y1="17" x2="28" y2="22"/>
	<line fill="none" stroke="#3E4C5F" stroke-width="2" stroke-miterlimit="10" x1="33" y1="17" x2="33" y2="22"/>
	<line fill="none" stroke="#3E4C5F" stroke-width="2" stroke-miterlimit="10" x1="28" y1="46" x2="28" y2="49"/>
	<line fill="none" stroke="#3E4C5F" stroke-width="2" stroke-miterlimit="10" x1="33" y1="46" x2="33" y2="49"/>
	<line fill="none" stroke="#3E4C5F" stroke-width="2" stroke-miterlimit="10" x1="21.3" y1="45" x2="28.3" y2="45"/>
</g>
</svg>
