<?xml version="1.0" encoding="UTF-8" standalone="no"?>
<svg width="72px" height="61px" viewBox="0 0 72 61" version="1.1" xmlns="http://www.w3.org/2000/svg" xmlns:xlink="http://www.w3.org/1999/xlink">
    <!-- Generator: sketchtool 40.3 (33839) - http://www.bohemiancoding.com/sketch -->
    <title>46A81CA1-0E05-458A-AFDB-92795EC5ECBD</title>
    <desc>Created with sketchtool.</desc>
    <defs>
        <linearGradient x1="50%" y1="-1.11022302e-14%" x2="50%" y2="100%" id="linearGradient-1">
            <stop stop-color="#FFCB48" offset="0%"></stop>
            <stop stop-color="#FFAE2C" offset="100%"></stop>
        </linearGradient>
    </defs>
    <g id="01_Lykke_Wallet" stroke="none" stroke-width="1" fill="none" fill-rule="evenodd">
        <g id="01_lykke_wallet/01a_lykke_wallet_landing" transform="translate(-623.000000, -2205.000000)">
            <g id="ic_ditect_ownership" transform="translate(624.000000, 2206.000000)">
                <path d="M0,3.98608243 C0,1.78098691 1.79201132,-0.00364593348 4.00996437,5.59354093e-06 L51.7478481,0.0785988588 C53.9624903,0.082244935 55.7578125,1.8818773 55.7578125,4.07787931 L55.7578125,50.092522 C55.7578125,52.2976175 53.9658012,54.0822504 51.7478481,54.0785989 L4.00996437,54.0000056 C1.7953222,53.9963595 0,52.1967272 0,50.0007251 L0,3.98608243 Z" id="Rectangle-3-Copy-18" stroke="#333333" stroke-width="2" stroke-linecap="round" stroke-linejoin="round" fill="#FFFFFF"></path>
                <g id="market_making_icn" transform="translate(0.000000, 7.000000)">
                    <g id="Group-3-Copy-5">
                        <path d="M6,0 L60.0087876,0 C62.2130733,0 64,1.79867889 64,3.99976742 L64,48.0002326 C64,50.2092431 62.2046235,52 59.9965134,52 L4.00348663,52 C1.79242202,52 0,50.2013211 0,48.0002326 L0,0" id="Rectangle-3-Copy-18" stroke="#333333" stroke-width="2" stroke-linecap="round" stroke-linejoin="round" fill="#FFFFFF"></path>
                        <rect id="Rectangle-3-Copy-19" fill="url(#linearGradient-1)" x="5" y="5" width="54" height="42" rx="1"></rect>
                    </g>
                </g>
                <g id="Group-10-Copy-2" transform="translate(29.800000, 32.500000) scale(-1, 1) translate(-29.800000, -32.500000) translate(19.800000, 24.000000)" stroke="#FFFFFF" stroke-width="2" stroke-linecap="round">
                    <path d="M19.749707,0.145751953 L19.749707,5.57287598 C19.749707,8.57019381 17.3282217,10.9961974 14.3271401,10.9914847 L0.782421875,10.9702148" id="Path-7"></path>
                    <polyline id="Path-6-Copy-3" transform="translate(2.400000, 11.000000) scale(-1, 1) rotate(-90.000000) translate(-2.400000, -11.000000) " points="-3.6 8.6 2.4 13.4 8.4 8.6"></polyline>
                </g>
                <g id="Group-16" transform="translate(51.000000, 23.000000)" stroke="#333333" stroke-width="2" fill="#FFFFFF">
                    <path d="M18.0578013,2.99074768 C18.0594525,1.88859139 17.1588821,0.995603221 16.0611451,0.996194786 L9,1 C4.02943725,1 0,5.02943725 0,10 C0,14.9705627 4.02943725,19 9,19 L16.0289203,19 C17.1361942,19 18.0351547,18.1071351 18.0368068,17.0043695 L18.0578013,2.99074768 Z" id="Oval-5-Copy-7"></path>
                    <path d="M9,7 C7.34314575,7 6,8.34314575 6,10 C6,11.6568542 7.34314575,13 9,13 L9,13" id="Oval-4" stroke-linecap="round" stroke-linejoin="round"></path>
                </g>
            </g>
        </g>
    </g>
</svg>