<?xml version="1.0" encoding="UTF-8" standalone="no"?>
<svg width="63px" height="70px" viewBox="0 0 63 70" version="1.1" xmlns="http://www.w3.org/2000/svg" xmlns:xlink="http://www.w3.org/1999/xlink">
    <!-- Generator: Sketch 39.1 (31720) - http://www.bohemiancoding.com/sketch -->
    <title>immediate_settlement_icn</title>
    <desc>Created with Sketch.</desc>
    <defs>
        <linearGradient x1="50%" y1="-2.22044605e-14%" x2="50%" y2="100%" id="linearGradient-1">
            <stop stop-color="#41C5FF" offset="0%"></stop>
            <stop stop-color="#0DA7FC" offset="100%"></stop>
        </linearGradient>
    </defs>
    <g id="Lykke_Wallet" stroke="none" stroke-width="1" fill="none" fill-rule="evenodd">
        <g id="01a_lykke_wallet_landing" transform="translate(-286.000000, -2199.000000)">
            <g id="immediate_settlement_icn" transform="translate(286.000000, 2199.000000)">
                <g id="Group-18-Copy-4">
                    <g id="Group-17-Copy-2">
                        <path d="M30,12 C45.439,12 58,24.561 58,40 C58,55.439 45.439,68 30,68 C14.561,68 2,55.439 2,40 C2,24.561 14.561,12 30,12" id="Path"></path>
                        <path d="M54,40 C54,53.2334286 43.2334286,64 30,64 C16.7665714,64 6,53.2334286 6,40 C6,26.7665714 16.7665714,16 30,16 C43.2334286,16 54,26.7665714 54,40 Z" id="Path" fill="url(#linearGradient-1)"></path>
                        <path d="M30,10 C13.432,10 0,23.431 0,40 C0,56.568 13.432,70 30,70 C46.569,70 60,56.568 60,40 C60,23.431 46.569,10 30,10 M30,12 C45.439,12 58,24.561 58,40 C58,55.439 45.439,68 30,68 C14.561,68 2,55.439 2,40 C2,24.561 14.561,12 30,12" id="Fill-1-Copy-5" fill="#333333"></path>
                        <path d="M21,5 C20.4472847,5 20,4.55271525 20,4 L20,3 C20,2.44728475 20.4472847,2 21,2 L39,2 C39.5527153,2 40,2.44728475 40,3 L40,4 C40,4.55271525 39.5527153,5 39,5 L21,5 Z M42,4 L42,3 C42,1.34271525 40.6572847,0 39,0 L21,0 C19.3427153,0 18,1.34271525 18,3 L18,4 C18,5.65728475 19.3427153,7 21,7 L39,7 C40.6572847,7 42,5.65728475 42,4 Z" id="Stroke-9-Copy-5" fill="#333333"></path>
                        <path d="M52.2928568,12.413651 C51.9023811,12.0231753 51.9023811,11.3903403 52.2928568,10.9998646 L52.9998568,10.2928646 C53.3903325,9.90238889 54.0241675,9.90238889 54.4146432,10.2928646 L60.0717057,15.9489271 C60.4621943,16.339916 60.4621943,16.9730999 60.0716432,17.363651 L59.3641431,18.0701515 C58.9731675,18.4611267 58.3403325,18.4611267 57.9498568,18.070651 L52.2928568,12.413651 Z M60.7778568,19.4848646 L61.4853569,18.7783641 C62.6573057,17.6064157 62.6573057,15.7075996 61.486309,14.5351036 L55.8287943,8.87858853 C54.6573325,7.70712674 52.7571675,7.70712674 51.5856432,8.87865103 L50.8786432,9.58565103 C49.7071189,10.7571753 49.7071189,12.6563403 50.8786432,13.8278646 L56.5356432,19.4848646 C57.7071675,20.6563889 59.6063325,20.6563889 60.7778568,19.4848646 Z" id="Stroke-11-Copy-5" fill="#333333"></path>
                        <path d="M31,7 C31,6.44771525 30.5522847,6 30,6 C29.4477153,6 29,6.44771525 29,7 L29,11 C29,11.5522847 29.4477153,12 30,12 C30.5522847,12 31,11.5522847 31,11 L31,7 Z" id="Stroke-13-Copy-5" fill="#333333"></path>
                        <path d="M54.5351068,16.7071068 C54.9256311,16.3165825 54.9256311,15.6834175 54.5351068,15.2928932 C54.1445825,14.9023689 53.5114175,14.9023689 53.1208932,15.2928932 L50.2928932,18.1208932 C49.9023689,18.5114175 49.9023689,19.1445825 50.2928932,19.5351068 C50.6834175,19.9256311 51.3165825,19.9256311 51.7071068,19.5351068 L54.5351068,16.7071068 Z" id="Stroke-15-Copy-5" fill="#333333"></path>
                    </g>
                    <polyline id="Path-4-Copy" stroke="#FFFFFF" stroke-width="2" stroke-linecap="round" points="30 27 30 40.4013149 39.2554523 49.590332"></polyline>
                </g>
            </g>
        </g>
    </g>
</svg>