<?xml version="1.0" encoding="UTF-8" standalone="no"?>
<svg width="62px" height="72px" viewBox="0 0 62 72" version="1.1" xmlns="http://www.w3.org/2000/svg" xmlns:xlink="http://www.w3.org/1999/xlink">
    <!-- Generator: sketchtool 40.3 (33839) - http://www.bohemiancoding.com/sketch -->
    <title>A2B67ED2-FA47-41CD-8167-24D893D0C26E</title>
    <desc>Created with sketchtool.</desc>
    <defs>
        <linearGradient x1="50%" y1="-2.48949813e-15%" x2="50%" y2="100%" id="linearGradient-1">
            <stop stop-color="#FF8177" offset="0%"></stop>
            <stop stop-color="#FF3E2E" offset="100%"></stop>
        </linearGradient>
    </defs>
    <g id="01_Lykke_Wallet" stroke="none" stroke-width="1" fill="none" fill-rule="evenodd">
        <g id="01_lykke_wallet/01a_lykke_wallet_landing" transform="translate(-629.000000, -1888.000000)">
            <g id="ic_low_spreads" transform="translate(629.000000, 1889.000000)">
                <g id="Group-22-Copy" transform="translate(31.000000, 35.000000) scale(-1, 1) translate(-31.000000, -35.000000) ">
                    <g id="Group-20" transform="translate(0.000000, 9.000000)">
                        <polyline id="Rectangle-3-Copy-18" stroke="#333333" stroke-width="2" stroke-linecap="round" stroke-linejoin="round" points="1 6 21.0866699 12 61 0"></polyline>
                        <polyline id="Rectangle-3-Copy-20" stroke="#333333" stroke-width="2" stroke-linecap="round" stroke-linejoin="round" transform="translate(31.000000, 46.000000) scale(1, -1) translate(-31.000000, -46.000000) " points="1 52 21.0866699 52 61 40"></polyline>
                        <path d="M0,12.0006946 C0,11.4480262 0.438614845,11.1253185 0.956895232,11.2733986 L21,17 L61.046883,5.27896107 C61.573275,5.12489513 62,5.44326177 62,5.99678245 L62,46.0032175 C62,46.5537253 61.5672921,46.8733538 61.046883,46.7210389 L21,35 L0.998746091,35 C0.447153856,35 0,34.5525308 0,33.9993054 L0,12.0006946 Z" id="Rectangle-11-Copy" fill="url(#linearGradient-1)"></path>
                    </g>
                    <g id="Group-21" transform="translate(21.000000, 5.500000) rotate(90.000000) translate(-21.000000, -5.500000) translate(15.500000, 0.500000)" stroke="#333333" stroke-width="2" stroke-linecap="round">
                        <polyline id="Path-6-Copy" transform="translate(9.000000, 5.000000) rotate(-90.000000) translate(-9.000000, -5.000000) " points="4 3 9 7 14 3"></polyline>
                        <path d="M10,5 L0,5" id="Path-7"></path>
                    </g>
                    <g id="Group-21-Copy" transform="translate(21.000000, 64.500000) scale(1, -1) rotate(90.000000) translate(-21.000000, -64.500000) translate(15.500000, 59.500000)" stroke="#333333" stroke-width="2" stroke-linecap="round">
                        <polyline id="Path-6-Copy" transform="translate(9.000000, 5.000000) rotate(-90.000000) translate(-9.000000, -5.000000) " points="4 3 9 7 14 3"></polyline>
                        <path d="M10,5 L0,5" id="Path-7"></path>
                    </g>
                </g>
            </g>
        </g>
    </g>
</svg>