<svg xmlns="http://www.w3.org/2000/svg" width="30" height="30" viewBox="0 0 30 30">
    <g fill="none" fill-rule="evenodd">
        <path fill="#FFF" d="M0 30h30V0H0z"/>
        <path fill="#000" d="M28 16c0 .551-.449 1-1 1-.551 0-1-.449-1-1v-2h1c.551 0 1 .449 1 1v1zM15 28c-.551 0-1-.449-1-1 0-.551.449-1 1-1 .551 0 1 .449 1 1 0 .551-.449 1-1 1zM4 16c0 .551-.449 1-1 1-.551 0-1-.449-1-1v-1c0-.551.449-1 1-1h1v2zm23-4h-1v-.658C26 5.368 21.489.396 15.73.023c-3.074-.196-6.01.849-8.251 2.95A11.041 11.041 0 0 0 4 11v1H3c-1.654 0-3 1.346-3 3v1c0 1.654 1.346 3 3 3s3-1.346 3-3v-5a8.914 8.914 0 0 1 2.847-6.568 8.923 8.923 0 0 1 6.754-2.412C20.311 2.324 24 6.419 24 11.342V17a8.962 8.962 0 0 1-6.362 8.601A2.993 2.993 0 0 0 15 24c-1.654 0-3 1.346-3 3s1.346 3 3 3a3.004 3.004 0 0 0 2.94-2.405 10.948 10.948 0 0 0 7.915-8.824c.353.146.739.229 1.145.229 1.654 0 3-1.346 3-3v-1c0-1.654-1.346-3-3-3z"/>
    </g>
</svg>
