<svg xmlns="http://www.w3.org/2000/svg" width="30" height="29" viewBox="0 0 30 29">
    <path fill="#000" fill-rule="evenodd" d="M28 16c0 .551-.449 1-1 1l-1 .001V14h1c.551 0 1 .449 1 1v1zM13 27v-2h4l.001 2H13zM4 17H3c-.551 0-1-.449-1-1v-1c0-.551.449-1 1-1h1v3zm23-5h-1v-1c0-6.065-4.935-11-11-11S4 4.935 4 11v1H3c-1.654 0-3 1.346-3 3v1c0 1.654 1.346 3 3 3h1c1.103 0 2-.897 2-2v-6c0-4.962 4.038-9 9-9s9 4.038 9 9v6c0 3.523-2.042 6.567-5 8.043V25c0-1.103-.897-2-2-2h-4c-1.103 0-2 .897-2 2v2c0 1.103.897 2 2 2h4a1.996 1.996 0 0 0 1.976-1.759c3.507-1.366 6.147-4.473 6.84-8.26C25.877 18.987 27 19 27 19c1.654 0 3-1.346 3-3v-1c0-1.654-1.346-3-3-3z"/>
</svg>
