<?xml version="1.0" encoding="UTF-8" standalone="no"?>
<svg width="62px" height="62px" viewBox="0 0 62 62" version="1.1" xmlns="http://www.w3.org/2000/svg" xmlns:xlink="http://www.w3.org/1999/xlink">
    <!-- Generator: Sketch 42 (36781) - http://www.bohemiancoding.com/sketch -->
    <title>chf_icn</title>
    <desc>Created with Sketch.</desc>
    <defs></defs>
    <g id="03_Lykke_Corp" stroke="none" stroke-width="1" fill="none" fill-rule="evenodd" stroke-linecap="round" stroke-linejoin="round">
        <g id="03_lykke_corp/05a_invest" transform="translate(-630.000000, -1573.000000)" stroke-width="2">
            <g id="Group-18" transform="translate(586.000000, 1574.000000)">
                <g id="chf_icn" transform="translate(45.000000, 0.000000)">
                    <g id="Page-1" transform="translate(21.000000, 19.000000)" stroke="#AB00FF">
                        <path d="M5,22 L5,3.91 C5,1.75 6.75,0 8.91,0 L15,0" id="Stroke-3"></path>
                        <path d="M5,9 L15,9" id="Stroke-5"></path>
                        <path d="M0,17 L11,17" id="Stroke-7"></path>
                    </g>
                    <path d="M53.2470972,11.0359261 C57.468191,16.2041572 60,22.8062719 60,30 C60,46.5693103 46.5682759,60 30,60 C13.4317241,60 0,46.5693103 0,30 C0,13.4306897 13.4317241,0 30,0 C35.1826264,0 40.0583522,1.31414558 44.3120754,3.62742957" id="Stroke-3" stroke="#3F4D60" transform="translate(30.000000, 30.000000) scale(1, -1) translate(-30.000000, -30.000000) "></path>
                </g>
            </g>
        </g>
    </g>
</svg>