<?xml version="1.0" encoding="UTF-8" standalone="no"?>
<svg width="62px" height="62px" viewBox="0 0 62 62" version="1.1" xmlns="http://www.w3.org/2000/svg" xmlns:xlink="http://www.w3.org/1999/xlink">
    <!-- Generator: Sketch 42 (36781) - http://www.bohemiancoding.com/sketch -->
    <title>ethereum_icn</title>
    <desc>Created with Sketch.</desc>
    <defs></defs>
    <g id="03_Lykke_Corp" stroke="none" stroke-width="1" fill="none" fill-rule="evenodd" stroke-linecap="round" stroke-linejoin="round">
        <g id="03_lykke_corp/05a_invest" transform="translate(-784.000000, -1573.000000)" stroke-width="2">
            <g id="Group-19" transform="translate(776.000000, 1574.000000)">
                <g id="ethereum_icn" transform="translate(9.000000, 0.000000)">
                    <g id="Page-1" transform="translate(21.000000, 14.000000)" stroke="#AB00FF">
                        <polygon id="Stroke-3" points="0 15.1621 9 0.0191 18 15.1621 9 19.7331"></polygon>
                        <polyline id="Stroke-5" points="0.5996 18.8838 8.9996 30.8838 17.4006 18.8838"></polyline>
                        <path d="M0,15.1621 L8,11.7331" id="Stroke-7"></path>
                        <path d="M18,15.1621 L10.286,11.7331" id="Stroke-9"></path>
                        <path d="M9,19.7334 L9,0.3044" id="Stroke-11"></path>
                        <path d="M9.0098,30.5977 L8.9998,23.1687" id="Stroke-13"></path>
                    </g>
                    <path d="M53.2470972,11.0359261 C57.468191,16.2041572 60,22.8062719 60,30 C60,46.5693103 46.5682759,60 30,60 C13.4317241,60 0,46.5693103 0,30 C0,13.4306897 13.4317241,0 30,0 C35.1826264,0 40.0583522,1.31414558 44.3120754,3.62742957" id="Stroke-3" stroke="#3F4D60" transform="translate(30.000000, 30.000000) scale(1, -1) translate(-30.000000, -30.000000) "></path>
                </g>
            </g>
        </g>
    </g>
</svg>