<?xml version="1.0" encoding="UTF-8" standalone="no"?>
<svg width="62px" height="62px" viewBox="0 0 62 62" version="1.1" xmlns="http://www.w3.org/2000/svg" xmlns:xlink="http://www.w3.org/1999/xlink">
    <!-- Generator: Sketch 42 (36781) - http://www.bohemiancoding.com/sketch -->
    <title>gbp_icn</title>
    <desc>Created with Sketch.</desc>
    <defs></defs>
    <g id="03_Lykke_Corp" stroke="none" stroke-width="1" fill="none" fill-rule="evenodd" stroke-linecap="round" stroke-linejoin="round">
        <g id="03_lykke_corp/05a_invest" transform="translate(-322.000000, -1573.000000)" stroke-width="2">
            <g id="Group-11" transform="translate(297.000000, 1574.000000)">
                <g id="gbp_icn" transform="translate(26.000000, 0.000000)">
                    <g id="Page-1" transform="translate(22.000000, 19.000000)" stroke="#AB00FF">
                        <path d="M3,19.6667 L3,4.6667" id="Stroke-1"></path>
                        <path d="M0,9.9997 L10,9.9997" id="Stroke-3"></path>
                        <polyline id="Stroke-5" points="0 20.4997 14.167 20.4997 14.167 15.6667"></polyline>
                        <path d="M3,4.9997 C3,2.2387 5.238,-0.0003 8,-0.0003 C9.359,-0.0003 10.592,0.5427 11.493,1.4227" id="Stroke-7"></path>
                    </g>
                    <path d="M53.2470972,11.0359261 C57.468191,16.2041572 60,22.8062719 60,30 C60,46.5693103 46.5682759,60 30,60 C13.4317241,60 0,46.5693103 0,30 C0,13.4306897 13.4317241,0 30,0 C35.1826264,0 40.0583522,1.31414558 44.3120754,3.62742957" id="Stroke-3" stroke="#3F4D60" transform="translate(30.000000, 30.000000) scale(1, -1) translate(-30.000000, -30.000000) "></path>
                </g>
            </g>
        </g>
    </g>
</svg>