<?xml version="1.0" encoding="UTF-8" standalone="no"?>
<svg width="62px" height="62px" viewBox="0 0 62 62" version="1.1" xmlns="http://www.w3.org/2000/svg" xmlns:xlink="http://www.w3.org/1999/xlink">
    <!-- Generator: Sketch 42 (36781) - http://www.bohemiancoding.com/sketch -->
    <title>lykke_icn</title>
    <desc>Created with Sketch.</desc>
    <defs></defs>
    <g id="03_Lykke_Corp" stroke="none" stroke-width="1" fill="none" fill-rule="evenodd" stroke-linecap="round" stroke-linejoin="round">
        <g id="03_lykke_corp/05a_invest" transform="translate(-630.000000, -1403.000000)" stroke-width="2">
            <g id="Group-14" transform="translate(618.000000, 1404.000000)">
                <g id="lykke_icn" transform="translate(13.000000, 0.000000)">
                    <g id="Page-1" transform="translate(18.000000, 18.000000)" stroke="#AB00FF">
                        <polyline id="Stroke-1" points="13 -0.0001 13 9.9999 24 9.9999"></polyline>
                        <polyline id="Stroke-3" points="20.8462 21.8461 12.0002 13.0001 3.1542 21.8461"></polyline>
                        <path d="M10,9.9999 L0,9.9999" id="Stroke-5"></path>
                    </g>
                    <path d="M53.2470972,11.0359261 C57.468191,16.2041572 60,22.8062719 60,30 C60,46.5693103 46.5682759,60 30,60 C13.4317241,60 0,46.5693103 0,30 C0,13.4306897 13.4317241,0 30,0 C35.1826264,0 40.0583522,1.31414558 44.3120754,3.62742957" id="Stroke-3" stroke="#3F4D60" transform="translate(30.000000, 30.000000) scale(1, -1) translate(-30.000000, -30.000000) "></path>
                </g>
            </g>
        </g>
    </g>
</svg>