<?xml version="1.0" encoding="UTF-8" standalone="no"?>
<svg width="62px" height="62px" viewBox="0 0 62 62" version="1.1" xmlns="http://www.w3.org/2000/svg" xmlns:xlink="http://www.w3.org/1999/xlink">
    <!-- Generator: Sketch 42 (36781) - http://www.bohemiancoding.com/sketch -->
    <title>solar_icn</title>
    <desc>Created with Sketch.</desc>
    <defs></defs>
    <g id="03_Lykke_Corp" stroke="none" stroke-width="1" fill="none" fill-rule="evenodd" stroke-linecap="round" stroke-linejoin="round">
        <g id="03_lykke_corp/05a_invest" transform="translate(-321.000000, -1403.000000)" stroke-width="2">
            <g id="Group-12" transform="translate(311.000000, 1404.000000)">
                <g id="solar_icn" transform="translate(11.000000, 0.000000)">
                    <g id="Page-1" transform="translate(23.000000, 17.000000)" stroke="#AB00FF">
                        <path d="M14,6.793 C14,3.363 10.866,0.583 7,0.583 C3.134,0.583 0,3.363 0,6.793 C0,11.191 3.104,11.752 7,13.002 C10.693,14.189 14,14.425 14,19.212 C14,22.643 10.866,25.422 7,25.422 C4.658,25.422 2.583,24.4 1.313,22.833 C0.486,21.814 0,20.564 0,19.212" id="Stroke-1"></path>
                        <path d="M5.2969,8.3018 C7.8929,7.3608 10.7599,8.7028 11.7009,11.2988" id="Stroke-5"></path>
                        <path d="M8.7031,17.7031 C6.1071,18.6431 3.2401,17.3021 2.2991,14.7061" id="Stroke-7"></path>
                    </g>
                    <path d="M53.2470972,11.0359261 C57.468191,16.2041572 60,22.8062719 60,30 C60,46.5693103 46.5682759,60 30,60 C13.4317241,60 0,46.5693103 0,30 C0,13.4306897 13.4317241,0 30,0 C35.1826264,0 40.0583522,1.31414558 44.3120754,3.62742957" id="Stroke-3" stroke="#3F4D60" transform="translate(30.000000, 30.000000) scale(1, -1) translate(-30.000000, -30.000000) "></path>
                </g>
            </g>
        </g>
    </g>
</svg>