<?xml version="1.0" encoding="UTF-8" standalone="no"?>
<svg width="62px" height="62px" viewBox="0 0 62 62" version="1.1" xmlns="http://www.w3.org/2000/svg" xmlns:xlink="http://www.w3.org/1999/xlink">
    <!-- Generator: Sketch 42 (36781) - http://www.bohemiancoding.com/sketch -->
    <title>usd_icn</title>
    <desc>Created with Sketch.</desc>
    <defs></defs>
    <g id="03_Lykke_Corp" stroke="none" stroke-width="1" fill="none" fill-rule="evenodd" stroke-linecap="round" stroke-linejoin="round">
        <g id="03_lykke_corp/05a_invest" transform="translate(-937.000000, -1403.000000)" stroke-width="2">
            <g id="Group-16" transform="translate(916.000000, 1404.000000)">
                <g id="usd_icn" transform="translate(22.000000, 0.000000)">
                    <g id="Page-1" transform="translate(23.000000, 16.000000)" stroke="#AB00FF">
                        <path d="M13.0068,9.2334 C13.0068,6.5994 10.0948,4.4634 6.5038,4.4634 C2.9118,4.4634 -0.0002,6.5994 -0.0002,9.2334 C-0.0002,12.6114 2.8838,13.0424 6.5038,14.0024 C9.9348,14.9134 13.0068,15.0944 13.0068,18.7714 C13.0068,21.4064 10.0948,23.5414 6.5038,23.5414 C4.3278,23.5414 2.4008,22.7564 1.2208,21.5524 C0.4518,20.7694 -0.0002,19.8094 -0.0002,18.7714" id="Stroke-1"></path>
                        <path d="M6.0703,4.5244 L6.0703,0.9954" id="Stroke-3"></path>
                        <path d="M6.0703,27.0703 L6.0703,23.5413" id="Stroke-5"></path>
                    </g>
                    <g id="Group-9" stroke="#3F4D60">
                        <path d="M53.2470972,11.0359261 C57.468191,16.2041572 60,22.8062719 60,30 C60,46.5693103 46.5682759,60 30,60 C13.4317241,60 0,46.5693103 0,30 C0,13.4306897 13.4317241,0 30,0 C35.1826264,0 40.0583522,1.31414558 44.3120754,3.62742957" id="Stroke-3" transform="translate(30.000000, 30.000000) scale(1, -1) translate(-30.000000, -30.000000) "></path>
                    </g>
                </g>
            </g>
        </g>
    </g>
</svg>