<?xml version="1.0" encoding="UTF-8" standalone="no"?>
<svg width="62px" height="62px" viewBox="0 0 62 62" version="1.1" xmlns="http://www.w3.org/2000/svg" xmlns:xlink="http://www.w3.org/1999/xlink">
    <!-- Generator: Sketch 42 (36781) - http://www.bohemiancoding.com/sketch -->
    <title>yen_icn</title>
    <desc>Created with Sketch.</desc>
    <defs></defs>
    <g id="03_Lykke_Corp" stroke="none" stroke-width="1" fill="none" fill-rule="evenodd" stroke-linecap="round" stroke-linejoin="round">
        <g id="03_lykke_corp/05a_invest" transform="translate(-476.000000, -1403.000000)" stroke-width="2">
            <g id="Group-13" transform="translate(466.000000, 1404.000000)">
                <g id="yen_icn" transform="translate(11.000000, 0.000000)">
                    <g id="Page-1" transform="translate(22.000000, 21.000000)" stroke="#AB00FF">
                        <path d="M8,20 L8,10" id="Stroke-1"></path>
                        <path d="M2,10 L14,10" id="Stroke-3"></path>
                        <path d="M2,14 L14,14" id="Stroke-5"></path>
                        <path d="M0,0 L8,10" id="Stroke-7"></path>
                        <path d="M16,0 L8,10" id="Stroke-9"></path>
                    </g>
                    <path d="M53.2470972,11.0359261 C57.468191,16.2041572 60,22.8062719 60,30 C60,46.5693103 46.5682759,60 30,60 C13.4317241,60 0,46.5693103 0,30 C0,13.4306897 13.4317241,0 30,0 C35.1826264,0 40.0583522,1.31414558 44.3120754,3.62742957" id="Stroke-3" stroke="#3F4D60" transform="translate(30.000000, 30.000000) scale(1, -1) translate(-30.000000, -30.000000) "></path>
                </g>
            </g>
        </g>
    </g>
</svg>