<?xml version="1.0" encoding="utf-8"?>
<!-- Generator: Adobe Illustrator 19.0.0, SVG Export Plug-In . SVG Version: 6.00 Build 0)  -->
<svg version="1.1" id="Слой_1" xmlns="http://www.w3.org/2000/svg" xmlns:xlink="http://www.w3.org/1999/xlink" x="0px" y="0px"
	 viewBox="-448 250 62 62" style="enable-background:new -448 250 62 62;" xml:space="preserve">
<style type="text/css">
	.st0{opacity:0.6;}
	.st1{fill:#3F4D60;}
</style>
<title>close</title>
<desc>Created with Sketch.</desc>
<g id="_x30_3_x5F_Lykke_x5F_Corp" class="st0">
	
		<g id="_x30_3_x5F_lykke_x5F_corp_x2F_04b_x5F_leadership_x5F_person_x5F_blur_x5F_bg" transform="translate(-629.000000, -1298.000000)">
		<g id="close" transform="translate(630.000000, 1299.000000)">
			<g id="Group-8" transform="translate(18.000000, 18.000000)">
				<path class="st1" d="M-448,274.7c-0.3,0-0.5-0.1-0.7-0.3c-0.4-0.4-0.4-1,0-1.4l23.7-23.7c0.4-0.4,1-0.4,1.4,0s0.4,1,0,1.4
					l-23.7,23.7C-447.5,274.6-447.7,274.7-448,274.7z"/>
				<path class="st1" d="M-424.3,274.7c-0.3,0-0.5-0.1-0.7-0.3l-23.7-23.7c-0.4-0.4-0.4-1,0-1.4s1-0.4,1.4,0l23.7,23.7
					c0.4,0.4,0.4,1,0,1.4C-423.8,274.6-424.1,274.7-424.3,274.7z"/>
			</g>
			<path class="st1" d="M-418,311c-17.1,0-31-13.9-31-31c0-17.1,13.9-31,31-31c17.1,0,31,13.9,31,31C-387,297.1-400.9,311-418,311z
				 M-418,251c-16,0-29,13-29,29c0,16,13,29,29,29c16,0,29-13,29-29C-389,264-402,251-418,251z"/>
		</g>
	</g>
</g>
</svg>
