<svg width="72" height="61" viewBox="0 0 72 61" xmlns="http://www.w3.org/2000/svg"><title>46A81CA1-0E05-458A-AFDB-92795EC5ECBD</title><defs><linearGradient x1="50%" y1="0%" x2="50%" y2="100%" id="a"><stop stop-color="#FFCB48" offset="0%"/><stop stop-color="#FFAE2C" offset="100%"/></linearGradient></defs><g fill="none" fill-rule="evenodd"><path d="M1 4.986C1 2.78 2.792.996 5.01 1l47.738.08c2.214.002 4.01 1.802 4.01 3.998v46.015c0 2.205-1.792 3.99-4.01 3.986L5.01 55C2.795 54.996 1 53.197 1 51V4.987z" stroke="#333" stroke-width="2" stroke-linecap="round" stroke-linejoin="round" fill="#FFF"/><g transform="translate(1 8)"><path d="M6 0h54.01C62.212 0 64 1.8 64 4v44c0 2.21-1.795 4-4.003 4H4.003C1.793 52 0 50.2 0 48V0" stroke="#333" stroke-width="2" stroke-linecap="round" stroke-linejoin="round" fill="#FFF"/><rect fill="url(#a)" x="5" y="5" width="54" height="42" rx="1"/></g><g stroke="#FFF" stroke-width="2" stroke-linecap="round"><path d="M21.05 25.146v5.427c0 2.997 2.422 5.423 5.423 5.418l13.545-.02"/><path d="M36 42l4.8-6-4.8-6"/></g><g stroke="#333" stroke-width="2" fill="#FFF"><path d="M70.058 26.99c0-1.1-.9-1.994-1.997-1.994L61 25c-4.97 0-9 4.03-9 9s4.03 9 9 9h7.03c1.106 0 2.005-.893 2.007-1.996l.02-14.013z"/><path d="M61 31c-1.657 0-3 1.343-3 3s1.343 3 3 3" stroke-linecap="round" stroke-linejoin="round"/></g></g></svg>