<?xml version="1.0" encoding="UTF-8" standalone="no"?>
<svg width="82px" height="71px" viewBox="0 0 82 71" version="1.1" xmlns="http://www.w3.org/2000/svg" xmlns:xlink="http://www.w3.org/1999/xlink">
    <!-- Generator: sketchtool 40.3 (33839) - http://www.bohemiancoding.com/sketch -->
    <title>9B92B2A8-747A-4D80-8357-58F0C82F9A8B</title>
    <desc>Created with sketchtool.</desc>
    <defs>
        <linearGradient x1="50%" y1="-2.22044605e-14%" x2="50%" y2="100%" id="linearGradient-1">
            <stop stop-color="#41C5FF" offset="0%"></stop>
            <stop stop-color="#0DA7FC" offset="100%"></stop>
        </linearGradient>
    </defs>
    <g id="01_Lykke_Wallet" stroke="none" stroke-width="1" fill="none" fill-rule="evenodd">
        <g id="01_lykke_wallet/01a_lykke_wallet_landing" transform="translate(-951.000000, -1891.000000)">
            <g id="ic_guaranteed_execution" transform="translate(952.000000, 1892.000000)">
                <g id="Group-20-Copy">
                    <path d="M9,34 L29,34 L29,65.994357 C29,66.5497583 28.5956028,66.790863 28.1125667,66.5410574 L19,61.8284271 L9.88743329,66.5410574 C9.39731742,66.7945244 9,66.5584559 9,65.994357 L9,34 Z" id="Rectangle-7-Copy" stroke="#333333" stroke-width="2" stroke-linecap="round" stroke-linejoin="round" fill="#FFFFFF" transform="translate(19.000000, 50.500000) rotate(45.000000) translate(-19.000000, -50.500000) "></path>
                    <path d="M51,34 L71,34 L71,65.994357 C71,66.5497583 70.5956028,66.790863 70.1125667,66.5410574 L61,61.8284271 L51.8874333,66.5410574 C51.3973174,66.7945244 51,66.5584559 51,65.994357 L51,34 Z" id="Rectangle-7-Copy" stroke="#333333" stroke-width="2" stroke-linecap="round" stroke-linejoin="round" fill="#FFFFFF" transform="translate(61.000000, 50.500000) rotate(-45.000000) translate(-61.000000, -50.500000) "></path>
                    <g id="lykke_coins_icn" transform="translate(8.000000, 0.000000)">
                        <g id="token_design_icn">
                            <g id="comisssion_free_icn">
                                <g>
                                    <circle id="Oval-5-Copy-4" stroke="#333333" stroke-width="2" fill="#FFFFFF" cx="32" cy="32" r="32"></circle>
                                    <ellipse id="Oval-5-Copy-6" fill="url(#linearGradient-1)" cx="32" cy="32" rx="27" ry="27"></ellipse>
                                </g>
                            </g>
                        </g>
                        <g id="Group-10-Copy" transform="translate(31.646447, 30.387628) rotate(15.000000) translate(-31.646447, -30.387628) translate(23.146447, 20.887628)"></g>
                    </g>
                </g>
                <polyline id="Path-5" stroke="#FFFFFF" stroke-width="2" stroke-linecap="round" points="52 25 38.1445026 41 28 33.323263"></polyline>
            </g>
        </g>
    </g>
</svg>