<svg width="82" height="71" viewBox="0 0 82 71" xmlns="http://www.w3.org/2000/svg"><title>9B92B2A8-747A-4D80-8357-58F0C82F9A8B</title><defs><linearGradient x1="50%" y1="0%" x2="50%" y2="100%" id="a"><stop stop-color="#41C5FF" offset="0%"/><stop stop-color="#0DA7FC" offset="100%"/></linearGradient></defs><g fill="none" fill-rule="evenodd"><path d="M24.596 32.762l14.142 14.142-22.623 22.623c-.393.393-.85.277-1.014-.24l-3.11-9.777-9.776-3.11c-.526-.168-.64-.616-.24-1.015l22.622-22.623zM43.262 46.904l14.142-14.142 22.623 22.623c.393.393.277.85-.24 1.014l-9.777 3.11-3.11 9.776c-.168.526-.616.64-1.015.24L43.262 46.905z" stroke="#333" stroke-width="2" stroke-linecap="round" stroke-linejoin="round" fill="#FFF"/><g transform="translate(9 1)"><circle stroke="#333" stroke-width="2" fill="#FFF" cx="32" cy="32" r="32"/><ellipse fill="url(#a)" cx="32" cy="32" rx="27" ry="27"/></g><path stroke="#FFF" stroke-width="2" stroke-linecap="round" d="M53 26L39.145 42 29 34.323"/></g></svg>