<svg width="63" height="70" viewBox="0 0 63 70" xmlns="http://www.w3.org/2000/svg"><title>immediate_settlement_icn</title><defs><linearGradient x1="50%" y1="0%" x2="50%" y2="100%" id="a"><stop stop-color="#41C5FF" offset="0%"/><stop stop-color="#0DA7FC" offset="100%"/></linearGradient></defs><g fill="none" fill-rule="evenodd"><path d="M30 12c15.44 0 28 12.56 28 28S45.44 68 30 68 2 55.44 2 40s12.56-28 28-28"/><path d="M54 40c0 13.233-10.767 24-24 24S6 53.233 6 40s10.767-24 24-24 24 10.767 24 24z" fill="url(#a)"/><path d="M30 10C13.432 10 0 23.43 0 40c0 16.568 13.432 30 30 30 16.57 0 30-13.432 30-30 0-16.57-13.43-30-30-30m0 2c15.44 0 28 12.56 28 28S45.44 68 30 68 2 55.44 2 40s12.56-28 28-28M21 5c-.553 0-1-.447-1-1V3c0-.553.447-1 1-1h18c.553 0 1 .447 1 1v1c0 .553-.447 1-1 1H21zm21-1V3c0-1.657-1.343-3-3-3H21c-1.657 0-3 1.343-3 3v1c0 1.657 1.343 3 3 3h18c1.657 0 3-1.343 3-3zM52.293 12.414c-.39-.39-.39-1.024 0-1.414l.707-.707c.39-.39 1.024-.39 1.415 0l5.657 5.656c.39.39.39 1.023 0 1.414l-.708.706c-.39.39-1.024.39-1.414 0l-5.657-5.656zm8.485 7.07l.707-.706c1.172-1.172 1.172-3.07 0-4.243L55.83 8.88c-1.173-1.173-3.073-1.173-4.244 0l-.707.706c-1.173 1.17-1.173 3.07 0 4.242l5.656 5.657c1.17 1.17 3.07 1.17 4.242 0z" fill="#333"/><path d="M31 7c0-.552-.448-1-1-1s-1 .448-1 1v4c0 .552.448 1 1 1s1-.448 1-1V7zM54.535 16.707c.39-.39.39-1.024 0-1.414-.39-.39-1.024-.39-1.414 0l-2.827 2.828c-.39.39-.39 1.025 0 1.415.39.39 1.024.39 1.414 0l2.828-2.828z" fill="#333"/><path stroke="#FFF" stroke-width="2" stroke-linecap="round" d="M30 27v13.4l9.255 9.19"/></g></svg>