<svg width="62" height="72" viewBox="0 0 62 72" xmlns="http://www.w3.org/2000/svg"><title>A2B67ED2-FA47-41CD-8167-24D893D0C26E</title><defs><linearGradient x1="50%" y1="0%" x2="50%" y2="100%" id="a"><stop stop-color="#FF8177" offset="0%"/><stop stop-color="#FF3E2E" offset="100%"/></linearGradient></defs><g fill="none" fill-rule="evenodd"><path stroke="#333" stroke-width="2" stroke-linecap="round" stroke-linejoin="round" d="M61 16l-20.087 6L1 10M61 50H40.913L1 62"/><path d="M0 12c0-.552.44-.875.957-.727L21 17 61.047 5.28c.526-.155.953.163.953.717v40.006c0 .55-.433.87-.953.718L21 35H1c-.553 0-1-.447-1-1V12z" fill="url(#a)" transform="matrix(-1 0 0 1 62 10)"/><g stroke="#333" stroke-width="2" stroke-linecap="round"><path d="M46 8l-5 4-5-4M41 11V1"/></g><g stroke="#333" stroke-width="2" stroke-linecap="round"><path d="M46 64l-5-4-5 4M41 61v10"/></g></g></svg>