<svg width="62" height="69" viewBox="0 0 62 69" xmlns="http://www.w3.org/2000/svg"><title>security_icn</title><defs><linearGradient x1="50%" y1="100%" x2="50%" y2="0%" id="a"><stop stop-color="#AB00FF" offset="0%"/><stop stop-color="#C955FF" offset="100%"/></linearGradient></defs><g transform="translate(1 1)" fill="none" fill-rule="evenodd"><rect fill="url(#a)" x="5" y="36" width="50" height="26" rx="1"/><g stroke="#333" stroke-width="2"><path d="M55 67H5c-2.76 0-5-2.24-5-5V36c0-2.76 2.24-5 5-5h50c2.76 0 5 2.24 5 5v26c0 2.76-2.24 5-5 5z"/><path d="M50 30V20C50 8.954 41.046 0 30 0S10 8.954 10 20v10" stroke-linecap="round"/></g><path d="M18 46v6M34 46v6M42 46v6M26 46v6" stroke="#FFF" stroke-width="2" stroke-linecap="round"/></g></svg>