<?xml version="1.0" encoding="UTF-8" standalone="no"?>
<svg width="56px" height="66px" viewBox="0 0 56 66" version="1.1" xmlns="http://www.w3.org/2000/svg" xmlns:xlink="http://www.w3.org/1999/xlink">
    <!-- Generator: Sketch 42 (36781) - http://www.bohemiancoding.com/sketch -->
    <title>access_icn</title>
    <desc>Created with Sketch.</desc>
    <defs>
        <linearGradient x1="50%" y1="100%" x2="50%" y2="-2.22044605e-14%" id="linearGradient-1">
            <stop stop-color="#AB00FF" offset="0%"></stop>
            <stop stop-color="#C955FF" offset="100%"></stop>
        </linearGradient>
    </defs>
    <g id="04_Lykke_B2B_2" stroke="none" stroke-width="1" fill="none" fill-rule="evenodd">
        <g id="04_lykke_b2b/03a_join_as" transform="translate(-282.000000, -1253.000000)">
            <g id="access_icn" transform="translate(283.000000, 1254.000000)">
                <g id="Group-6">
                    <path d="M9,64 L50.0073214,64 C52.2033234,64 54,62.207578 54,59.9965134 L54,4.00348663 C54,1.79537646 52.2124169,0 50.0073214,0 L3.99267864,0 C1.79667664,0 0,1.79242202 0,4.00348663 L0,31 L9,31 L9,64 Z" id="Combined-Shape" stroke="#333333" stroke-width="2" stroke-linecap="round" stroke-linejoin="round" fill="#FFFFFF"></path>
                    <path d="M49,6.00680574 C49,5.45076229 48.5501844,5 47.9983277,5 L6.00167227,5 C5.44846395,5 5,5.43861485 5,5.99874609 L5,25.0012539 C5,25.5528461 5.4463114,26 5.99754465,26 L13.0024554,26 C13.553384,26 14,26.4415441 14,27.005643 L14,57.994357 C14,58.5497583 14.4425293,59 15.0097361,59 L47.9902639,59 C48.5479258,59 49,58.5493864 49,57.9931943 L49,6.00680574 Z" id="Combined-Shape" fill="url(#linearGradient-1)"></path>
                    <g id="Group-6-Copy" transform="translate(32.500000, 18.000000) scale(-1, 1) translate(-32.500000, -18.000000) translate(25.000000, 15.000000)" stroke-linecap="round" stroke-width="2" stroke="#FFFFFF">
                        <polyline id="Path-7" points="15 6 1 6 0.968994141 0.0563964844 4.96899414 0.0563964844"></polyline>
                    </g>
                    <polyline id="Path-6-Copy-3" stroke="#FFFFFF" stroke-width="2" stroke-linecap="round" transform="translate(26.000000, 21.000000) scale(-1, 1) rotate(-90.000000) translate(-26.000000, -21.000000) " points="21 19 26 23 31 19"></polyline>
                </g>
            </g>
        </g>
    </g>
</svg>