<svg width="166" height="150" viewBox="0 0 166 150" xmlns="http://www.w3.org/2000/svg"><g transform="translate(2 2)" fill="none" fill-rule="evenodd"><circle stroke="#FFF" stroke-width="3" cx="60" cy="86" r="60"/><path d="M162 25.5c0 14.084-11.416 25.5-25.5 25.5-14.083 0-25.5-11.416-25.5-25.5S122.417 0 136.5 0C150.585 0 162 11.416 162 25.5z" stroke="#FFF" stroke-width="3" stroke-linecap="round" stroke-linejoin="round"/><circle stroke="#FFF" stroke-width="3" cx="60" cy="86" r="38"/><path d="M60 39c1.105 0 2-.895 2-2s-.895-2-2-2-2 .895-2 2 .895 2 2 2zm12.164 1.6c1.067.287 2.164-.346 2.45-1.413.286-1.067-.347-2.163-1.414-2.45-1.067-.285-2.164.348-2.45 1.415-.286 1.067.348 2.164 1.414 2.45zM83.5 45.298c.957.552 2.18.224 2.732-.732.552-.957.225-2.18-.732-2.732-.957-.553-2.18-.225-2.732.732-.552.956-.225 2.18.732 2.732zm9.734 7.47c.78.78 2.047.78 2.828 0 .78-.782.78-2.048 0-2.83-.78-.78-2.047-.78-2.828 0-.78.782-.78 2.048 0 2.83zm7.47 9.733c.55.957 1.775 1.284 2.73.732.958-.552 1.286-1.775.733-2.732-.552-.957-1.775-1.284-2.732-.732-.956.552-1.284 1.775-.732 2.732zm4.695 11.336c.284 1.066 1.38 1.7 2.448 1.414 1.067-.286 1.7-1.383 1.414-2.45-.286-1.067-1.382-1.7-2.45-1.414-1.066.286-1.7 1.383-1.413 2.45zM107 86c0 1.105.895 2 2 2s2-.895 2-2-.895-2-2-2-2 .895-2 2zm-1.6 12.164c-.287 1.067.346 2.164 1.413 2.45 1.067.286 2.163-.347 2.45-1.414.285-1.067-.348-2.164-1.415-2.45-1.067-.286-2.164.348-2.45 1.414zm-4.697 11.336c-.552.957-.224 2.18.732 2.732.957.552 2.18.225 2.732-.732.553-.957.225-2.18-.732-2.732-.956-.552-2.18-.225-2.732.732zm-7.47 9.734c-.78.78-.78 2.047 0 2.828.782.78 2.048.78 2.83 0 .78-.78.78-2.047 0-2.828-.782-.78-2.048-.78-2.83 0zm-9.733 7.47c-.957.55-1.284 1.775-.732 2.73.552.958 1.775 1.286 2.732.733.957-.552 1.284-1.775.732-2.732-.552-.956-1.775-1.284-2.732-.732zm-11.336 4.695c-1.066.284-1.7 1.38-1.414 2.448.286 1.067 1.383 1.7 2.45 1.414 1.067-.286 1.7-1.382 1.414-2.45-.286-1.066-1.383-1.7-2.45-1.413zM60 133c-1.105 0-2 .895-2 2s.895 2 2 2 2-.895 2-2-.895-2-2-2zm-12.164-1.6c-1.067-.287-2.164.346-2.45 1.413-.286 1.067.347 2.163 1.414 2.45 1.067.285 2.164-.348 2.45-1.415.286-1.067-.348-2.164-1.414-2.45zM36.5 126.702c-.957-.552-2.18-.224-2.732.732-.552.957-.225 2.18.732 2.732.957.553 2.18.225 2.732-.732.552-.956.225-2.18-.732-2.732zm-9.734-7.47c-.78-.78-2.047-.78-2.828 0-.78.782-.78 2.048 0 2.83.78.78 2.047.78 2.828 0 .78-.782.78-2.048 0-2.83zm-7.47-9.733c-.55-.957-1.775-1.284-2.73-.732-.958.552-1.286 1.775-.733 2.732.552.957 1.775 1.284 2.732.732.956-.552 1.284-1.775.732-2.732zm-4.695-11.336c-.284-1.066-1.38-1.7-2.448-1.414-1.067.286-1.7 1.383-1.414 2.45.286 1.067 1.382 1.7 2.45 1.414 1.066-.286 1.7-1.383 1.413-2.45zM13 86c0-1.105-.895-2-2-2s-2 .895-2 2 .895 2 2 2 2-.895 2-2zm1.6-12.164c.287-1.067-.346-2.164-1.413-2.45-1.067-.286-2.163.347-2.45 1.414-.285 1.067.348 2.164 1.415 2.45 1.067.286 2.164-.348 2.45-1.414zM19.298 62.5c.552-.957.224-2.18-.732-2.732-.957-.552-2.18-.225-2.732.732-.553.957-.225 2.18.732 2.732.956.552 2.18.225 2.732-.732zm7.47-9.734c.78-.78.78-2.047 0-2.828-.782-.78-2.048-.78-2.83 0-.78.78-.78 2.047 0 2.828.782.78 2.048.78 2.83 0zm9.733-7.47c.957-.55 1.284-1.775.732-2.73-.552-.958-1.775-1.286-2.732-.733-.957.552-1.284 1.775-.732 2.732.552.956 1.775 1.284 2.732.732zm11.336-4.695c1.066-.284 1.7-1.38 1.414-2.448-.286-1.067-1.383-1.7-2.45-1.414-1.067.286-1.7 1.382-1.414 2.45.286 1.066 1.383 1.7 2.45 1.413z" fill="#FFF"/><g stroke="#FFF" stroke-width="3" stroke-linecap="round"><path d="M41.358 82.485h20M41.358 88.485h20M73.464 94c-2.77 4.216-7.542 7-12.964 7-8.56 0-15.5-6.94-15.5-15.5C45 76.94 51.94 70 60.5 70c5.84 0 10.925 3.23 13.568 8"/></g><path d="M144 20.5c0-3.037-3.358-5.5-7.5-5.5-4.142 0-7.5 2.463-7.5 5.5 0 3.896 3.326 4.393 7.5 5.5 3.957 1.05 7.5 1.26 7.5 5.5 0 3.04-3.358 5.5-7.5 5.5-2.51 0-4.732-.904-6.093-2.293-.886-.903-1.407-2.01-1.407-3.207" stroke="#FFF" stroke-width="3" stroke-linecap="round" stroke-linejoin="round"/><path d="M136 15.07V11M136 41.07V37" stroke="#FFF" stroke-width="3" stroke-linecap="round"/></g></svg>