<?xml version="1.0" encoding="UTF-8" standalone="no"?>
<svg width="70px" height="78px" viewBox="0 0 70 78" version="1.1" xmlns="http://www.w3.org/2000/svg" xmlns:xlink="http://www.w3.org/1999/xlink">
    <!-- Generator: Sketch 41.2 (35397) - http://www.bohemiancoding.com/sketch -->
    <title>communication_icn</title>
    <desc>Created with Sketch.</desc>
    <defs>
        <linearGradient x1="50%" y1="-1.11022302e-14%" x2="50%" y2="100%" id="linearGradient-1">
            <stop stop-color="#20D330" offset="0%"></stop>
            <stop stop-color="#13B72A" offset="100%"></stop>
        </linearGradient>
        <rect id="path-2" x="14" y="25" width="40" height="18" rx="9"></rect>
        <mask id="mask-3" maskContentUnits="userSpaceOnUse" maskUnits="objectBoundingBox" x="0" y="0" width="40" height="18" fill="white">
            <use xlink:href="#path-2"></use>
        </mask>
    </defs>
    <g id="04_Lykke_B2B" stroke="none" stroke-width="1" fill="none" fill-rule="evenodd">
        <g id="03_lykke_b2b/03a_how_we_do_it" transform="translate(-276.000000, -1599.000000)">
            <g id="communication_icn" transform="translate(277.000000, 1600.000000)">
                <g id="comisssion_free_icn-copy-3">
                    <path d="M13.0215972,60.7582922 C5.09319545,54.5337671 -1.70530257e-13,44.8616733 -1.70530257e-13,34 C-1.70530257e-13,15.2223185 15.2223185,0 34,0 C52.7776815,0 68,15.2223185 68,34 C68,52.7776815 52.7776815,68 34,68 C31.4958704,68 29.0549693,67.7292861 26.7049665,67.215528 L13.0388612,75.181067 L13.0215972,60.7582922 Z" id="Combined-Shape" stroke="#333333" stroke-width="2" stroke-linecap="round" stroke-linejoin="round"></path>
                    <ellipse id="Oval-5-Copy-6" fill="url(#linearGradient-1)" cx="34" cy="34" rx="29" ry="29"></ellipse>
                </g>
                <g id="Group-7" transform="translate(23.000000, 32.000000)" fill="#FFFFFF">
                    <circle id="Oval-5" cx="2" cy="2" r="2"></circle>
                    <circle id="Oval-5-Copy-3" cx="11" cy="2" r="2"></circle>
                    <circle id="Oval-5-Copy-5" cx="20" cy="2" r="2"></circle>
                </g>
                <use id="Rectangle-3" stroke="#FFFFFF" mask="url(#mask-3)" stroke-width="4" xlink:href="#path-2"></use>
            </g>
        </g>
    </g>
</svg>