<?xml version="1.0" encoding="UTF-8" standalone="no"?>
<svg width="82px" height="71px" viewBox="0 0 82 71" version="1.1" xmlns="http://www.w3.org/2000/svg" xmlns:xlink="http://www.w3.org/1999/xlink">
    <!-- Generator: Sketch 42 (36781) - http://www.bohemiancoding.com/sketch -->
    <title>contract_lykke_icn</title>
    <desc>Created with Sketch.</desc>
    <defs>
        <linearGradient x1="50%" y1="-1.11022302e-14%" x2="50%" y2="100%" id="linearGradient-1">
            <stop stop-color="#FF8177" offset="0%"></stop>
            <stop stop-color="#FF3E2E" offset="100%"></stop>
        </linearGradient>
    </defs>
    <g id="04_Lykke_B2B_2" stroke="none" stroke-width="1" fill="none" fill-rule="evenodd">
        <g id="04_lykke_b2b/03a_join_as" transform="translate(-269.000000, -1107.000000)">
            <g id="contract_lykke_icn" transform="translate(270.000000, 1108.000000)">
                <g id="ic_guaranteed_execution">
                    <g id="Group-20-Copy">
                        <path d="M9.12640082,34.0523569 L29.1264008,34.0523569 L29.1264008,66.0467139 C29.1264008,66.6021152 28.7220036,66.8432199 28.2389675,66.5934143 L19.1264008,61.8807841 L10.0138341,66.5934143 C9.52371824,66.8468813 9.12640082,66.6108128 9.12640082,66.0467139 L9.12640082,34.0523569 Z" id="Rectangle-7-Copy" stroke="#333333" stroke-width="2" stroke-linecap="round" stroke-linejoin="round" fill="#FFFFFF" transform="translate(19.126401, 50.373599) rotate(45.000000) translate(-19.126401, -50.373599) "></path>
                        <path d="M50.8735992,34.0523569 L70.8735992,34.0523569 L70.8735992,66.0467139 C70.8735992,66.6021152 70.4692019,66.8432199 69.9861659,66.5934143 L60.8735992,61.8807841 L51.7610325,66.5934143 C51.2709166,66.8468813 50.8735992,66.6108128 50.8735992,66.0467139 L50.8735992,34.0523569 Z" id="Rectangle-7-Copy" stroke="#333333" stroke-width="2" stroke-linecap="round" stroke-linejoin="round" fill="#FFFFFF" transform="translate(60.873599, 50.373599) rotate(-45.000000) translate(-60.873599, -50.373599) "></path>
                        <g id="lykke_coins_icn" transform="translate(8.000000, 0.000000)">
                            <g id="token_design_icn">
                                <g id="comisssion_free_icn">
                                    <g>
                                        <ellipse id="Oval-5-Copy-4" stroke="#333333" stroke-width="2" fill="#FFFFFF" cx="32" cy="32" rx="32" ry="32"></ellipse>
                                        <ellipse id="Oval-5-Copy-6" fill="url(#linearGradient-1)" cx="32" cy="32" rx="27" ry="27"></ellipse>
                                    </g>
                                </g>
                            </g>
                            <g id="Group-10-Copy" transform="translate(31.646447, 30.387628) rotate(15.000000) translate(-31.646447, -30.387628) translate(23.146447, 20.887628)"></g>
                        </g>
                    </g>
                </g>
                <g id="Page-1" transform="translate(29.000000, 21.000000)" stroke="#FFFFFF" stroke-width="2" stroke-linecap="round" stroke-linejoin="round">
                    <polyline id="Stroke-1" points="12 0 12 9 22 9"></polyline>
                    <polyline id="Stroke-3" points="19 20 11 12 3 20"></polyline>
                    <path d="M9,9 L0,9" id="Stroke-5"></path>
                </g>
            </g>
        </g>
    </g>
</svg>