<?xml version="1.0" encoding="UTF-8" standalone="no"?>
<svg width="72px" height="74px" viewBox="0 0 72 74" version="1.1" xmlns="http://www.w3.org/2000/svg" xmlns:xlink="http://www.w3.org/1999/xlink">
    <!-- Generator: Sketch 41.2 (35397) - http://www.bohemiancoding.com/sketch -->
    <title>ecosystem_icn</title>
    <desc>Created with Sketch.</desc>
    <defs>
        <linearGradient x1="50%" y1="-1.11022302e-14%" x2="50%" y2="100%" id="linearGradient-1">
            <stop stop-color="#20D330" offset="0%"></stop>
            <stop stop-color="#13B72A" offset="100%"></stop>
        </linearGradient>
    </defs>
    <g id="04_Lykke_B2B" stroke="none" stroke-width="1" fill="none" fill-rule="evenodd">
        <g id="03_lykke_b2b/03a_how_we_do_it" transform="translate(-275.000000, -2225.000000)">
            <g id="ecosystem_icn" transform="translate(276.000000, 2226.000000)">
                <g id="comisssion_free_icn">
                    <circle id="Oval-5-Copy-4" stroke="#333333" stroke-width="2" cx="34" cy="38" r="34"></circle>
                    <ellipse id="Oval-5-Copy-6" fill="url(#linearGradient-1)" cx="34" cy="38" rx="29" ry="29"></ellipse>
                    <path d="M19,38 C19,46.2842712 25.7157288,53 34,53 L34,53 C42.2842712,53 49,46.2842712 49,38 C49,29.7157288 42.2842712,23 34,23" id="Oval-5-Copy-6" stroke="#FFFFFF" stroke-width="2" stroke-linecap="round"></path>
                    <path d="M34,30 C29.581722,30 26,33.581722 26,38 C26,42.418278 29.581722,46 34,46 L34,46 C38.418278,46 42,42.418278 42,38" id="Oval-5-Copy-6" stroke="#FFFFFF" stroke-width="2" stroke-linecap="round"></path>
                    <path d="M34.5,16 C22.0735931,16 12,26.0735931 12,38.5 C12,50.9264069 22.0735931,61 34.5,61 L34.5,61 C46.9264069,61 57,50.9264069 57,38.5" id="Oval-5-Copy-6" stroke="#FFFFFF" stroke-width="2" stroke-linecap="round"></path>
                    <g id="Group-18" transform="translate(44.000000, 0.000000)" stroke="#333333" stroke-width="2" fill="#FFFFFF">
                        <circle id="Oval-5-Copy-7" cx="13" cy="13" r="13"></circle>
                    </g>
                </g>
                <circle id="Oval-5-Copy-7" stroke="#333333" stroke-width="2" fill="#FFFFFF" cx="11" cy="63" r="7"></circle>
            </g>
        </g>
    </g>
</svg>