<?xml version="1.0" encoding="UTF-8" standalone="no"?>
<svg width="66px" height="58px" viewBox="0 0 66 58" version="1.1" xmlns="http://www.w3.org/2000/svg" xmlns:xlink="http://www.w3.org/1999/xlink">
    <!-- Generator: Sketch 41.2 (35397) - http://www.bohemiancoding.com/sketch -->
    <title>issuance_icn</title>
    <desc>Created with Sketch.</desc>
    <defs>
        <linearGradient x1="50%" y1="-1.11022302e-14%" x2="50%" y2="100%" id="linearGradient-1">
            <stop stop-color="#FFCB48" offset="0%"></stop>
            <stop stop-color="#FFAE2C" offset="100%"></stop>
        </linearGradient>
    </defs>
    <g id="04_Lykke_B2B" stroke="none" stroke-width="1" fill="none" fill-rule="evenodd">
        <g id="03_lykke_b2b/03a_how_we_do_it" transform="translate(-976.000000, -992.000000)">
            <g id="issuance_icn" transform="translate(977.000000, 993.000000)">
                <rect id="Rectangle-3-Copy-18" stroke="#333333" stroke-width="2" stroke-linecap="round" stroke-linejoin="round" fill="#FFFFFF" x="0" y="0" width="30" height="16" rx="4"></rect>
                <g id="Group-9" transform="translate(0.000000, 7.000000)">
                    <g id="Group-8-Copy">
                        <g id="Group-3-Copy">
                            <rect id="Rectangle-3-Copy-18" stroke="#333333" stroke-width="2" stroke-linecap="round" stroke-linejoin="round" fill="#FFFFFF" x="0" y="0" width="64" height="49" rx="4"></rect>
                            <rect id="Rectangle-3-Copy-19" fill="url(#linearGradient-1)" x="5" y="5" width="54" height="39" rx="1"></rect>
                        </g>
                    </g>
                </g>
                <g id="Group-10" transform="translate(37.000000, 26.000000) scale(-1, 1) translate(-37.000000, -26.000000) translate(30.000000, 21.000000)" stroke="#FFFFFF" stroke-width="2" stroke-linecap="round">
                    <path d="M14,5 L0,5" id="Path-7"></path>
                    <polyline id="Path-6-Copy-3" transform="translate(2.000000, 5.000000) scale(-1, 1) rotate(-90.000000) translate(-2.000000, -5.000000) " points="-3 3 2 7 7 3"></polyline>
                </g>
                <g id="Group-10-Copy" transform="translate(21.000000, 31.000000)" stroke="#FFFFFF" stroke-width="2" stroke-linecap="round">
                    <path d="M14,5 L0,5" id="Path-7"></path>
                    <polyline id="Path-6-Copy-3" transform="translate(2.000000, 5.000000) scale(-1, 1) rotate(-90.000000) translate(-2.000000, -5.000000) " points="-3 3 2 7 7 3"></polyline>
                </g>
            </g>
        </g>
    </g>
</svg>