<?xml version="1.0" encoding="UTF-8" standalone="no"?>
<svg width="70px" height="64px" viewBox="0 0 70 64" version="1.1" xmlns="http://www.w3.org/2000/svg" xmlns:xlink="http://www.w3.org/1999/xlink">
    <!-- Generator: Sketch 42 (36781) - http://www.bohemiancoding.com/sketch -->
    <title>manage_icn</title>
    <desc>Created with Sketch.</desc>
    <defs>
        <linearGradient x1="50%" y1="-1.11022302e-14%" x2="50%" y2="100%" id="linearGradient-1">
            <stop stop-color="#FF8177" offset="0%"></stop>
            <stop stop-color="#FF3E2E" offset="100%"></stop>
        </linearGradient>
    </defs>
    <g id="04_Lykke_B2B_2" stroke="none" stroke-width="1" fill="none" fill-rule="evenodd">
        <g id="04_lykke_b2b/01a_b2b" transform="translate(-975.000000, -1380.000000)">
            <g id="manage_icn" transform="translate(976.000000, 1381.000000)">
                <g id="comisssion_free_icn">
                    <path d="M2.57380656,47 L2.57381059,47.0000006 L2.57381059,47.0000006 C0.915274841,42.9951169 0,38.6044454 0,34 C0,15.2223185 15.2223185,0 34,0 C52.7776815,0 68,15.2223185 68,34 C68,38.6044452 67.0847253,42.9951165 65.4261897,47" id="Combined-Shape" stroke="#333333" stroke-width="2" stroke-linecap="round"></path>
                    <ellipse id="Oval-5-Copy-6" fill="url(#linearGradient-1)" cx="34" cy="34" rx="29" ry="29"></ellipse>
                </g>
                <g id="Group-6" transform="translate(38.150903, 30.391675) scale(1, -1) rotate(-45.000000) translate(-38.150903, -30.391675) translate(35.150903, 21.891675)" stroke="#FFFFFF" stroke-width="2" stroke-linecap="round">
                    <circle id="Oval-4-Copy-2" stroke-linejoin="round" cx="3" cy="3" r="3"></circle>
                    <path d="M3,7 L3,17" id="Path-10-Copy"></path>
                </g>
                <path d="M34,10 L34,14 M44.4221846,12.3810968 L42.6687,15.976273 M52.7545845,19.0245836 L49.6460007,21.5418651 M57.3971542,28.6546373 L53.4996739,29.5544416 M57.3971542,39.3453627 L53.4996739,38.4455584 M10.6028458,39.3453627 L14.5003261,38.4455584 M10.6028458,28.6546373 L14.5003261,29.5544416 M15.2454155,19.0245836 L18.3539993,21.5418651 M23.5778154,12.3810968 L25.3313,15.976273" id="Path-10-Copy" stroke="#FFFFFF" stroke-width="2" stroke-linecap="round"></path>
            </g>
        </g>
    </g>
</svg>