<?xml version="1.0" encoding="UTF-8" standalone="no"?>
<svg width="70px" height="70px" viewBox="0 0 70 70" version="1.1" xmlns="http://www.w3.org/2000/svg" xmlns:xlink="http://www.w3.org/1999/xlink">
    <!-- Generator: Sketch 42 (36781) - http://www.bohemiancoding.com/sketch -->
    <title>revenue_icn</title>
    <desc>Created with Sketch.</desc>
    <defs>
        <linearGradient x1="50%" y1="-1.11022302e-14%" x2="50%" y2="100%" id="linearGradient-1">
            <stop stop-color="#FFCB48" offset="0%"></stop>
            <stop stop-color="#FFAE2C" offset="100%"></stop>
        </linearGradient>
    </defs>
    <g id="04_Lykke_B2B_2" stroke="none" stroke-width="1" fill="none" fill-rule="evenodd">
        <g id="04_lykke_b2b/03a_join_as" transform="translate(-275.000000, -1385.000000)">
            <g id="revenue_icn" transform="translate(276.000000, 1386.000000)">
                <g id="lykke_coins_icn">
                    <g id="token_design_icn">
                        <g id="comisssion_free_icn">
                            <g>
                                <circle id="Oval-5-Copy-4" stroke="#333333" stroke-width="2" cx="34" cy="34" r="34"></circle>
                                <ellipse id="Oval-5-Copy-6" fill="url(#linearGradient-1)" cx="34" cy="34" rx="29" ry="29"></ellipse>
                            </g>
                        </g>
                        <path d="M34,11 C33.4477153,11 33,10.5522847 33,10 C33,9.44771525 33.4477153,9 34,9 C34.5522847,9 35,9.44771525 35,10 C35,10.5522847 34.5522847,11 34,11 Z M39.952838,11.783706 C39.4193719,11.6407642 39.1027894,11.0924272 39.2457313,10.5589611 C39.3886731,10.025495 39.93701,9.70891253 40.4704761,9.85185434 C41.0039422,9.99479615 41.3205247,10.5431331 41.1775829,11.0765992 C41.0346411,11.6100653 40.4863041,11.9266478 39.952838,11.783706 Z M45.5,14.0814157 C45.0217074,13.8052733 44.8578322,13.1936829 45.1339746,12.7153903 C45.410117,12.2370977 46.0217074,12.0732225 46.5,12.3493649 C46.9782926,12.6255073 47.1421678,13.2370977 46.8660254,13.7153903 C46.589883,14.1936829 45.9782926,14.3575581 45.5,14.0814157 Z M50.263456,17.736544 C49.8729317,17.3460197 49.8729317,16.7128548 50.263456,16.3223305 C50.6539803,15.9318062 51.2871452,15.9318062 51.6776695,16.3223305 C52.0681938,16.7128548 52.0681938,17.3460197 51.6776695,17.736544 C51.2871452,18.1270683 50.6539803,18.1270683 50.263456,17.736544 Z M53.9185843,22.5 C53.6424419,22.0217074 53.8063171,21.410117 54.2846097,21.1339746 C54.7629023,20.8578322 55.3744927,21.0217074 55.6506351,21.5 C55.9267775,21.9782926 55.7629023,22.589883 55.2846097,22.8660254 C54.8063171,23.1421678 54.1947267,22.9782926 53.9185843,22.5 Z M56.216294,28.047162 C56.0733522,27.5136959 56.3899347,26.9653589 56.9234008,26.8224171 C57.4568669,26.6794753 58.0052038,26.9960578 58.1481457,27.5295239 C58.2910875,28.06299 57.974505,28.6113269 57.4410389,28.7542687 C56.9075728,28.8972106 56.3592358,28.5806281 56.216294,28.047162 Z M57,34 C57,33.4477153 57.4477153,33 58,33 C58.5522847,33 59,33.4477153 59,34 C59,34.5522847 58.5522847,35 58,35 C57.4477153,35 57,34.5522847 57,34 Z M56.216294,39.952838 C56.3592358,39.4193719 56.9075728,39.1027894 57.4410389,39.2457313 C57.974505,39.3886731 58.2910875,39.93701 58.1481457,40.4704761 C58.0052038,41.0039422 57.4568669,41.3205247 56.9234008,41.1775829 C56.3899347,41.0346411 56.0733522,40.4863041 56.216294,39.952838 Z M53.9185843,45.5 C54.1947267,45.0217074 54.8063171,44.8578322 55.2846097,45.1339746 C55.7629023,45.410117 55.9267775,46.0217074 55.6506351,46.5 C55.3744927,46.9782926 54.7629023,47.1421678 54.2846097,46.8660254 C53.8063171,46.589883 53.6424419,45.9782926 53.9185843,45.5 Z M50.263456,50.263456 C50.6539803,49.8729317 51.2871452,49.8729317 51.6776695,50.263456 C52.0681938,50.6539803 52.0681938,51.2871452 51.6776695,51.6776695 C51.2871452,52.0681938 50.6539803,52.0681938 50.263456,51.6776695 C49.8729317,51.2871452 49.8729317,50.6539803 50.263456,50.263456 Z M45.5,53.9185843 C45.9782926,53.6424419 46.589883,53.8063171 46.8660254,54.2846097 C47.1421678,54.7629023 46.9782926,55.3744927 46.5,55.6506351 C46.0217074,55.9267775 45.410117,55.7629023 45.1339746,55.2846097 C44.8578322,54.8063171 45.0217074,54.1947267 45.5,53.9185843 Z M39.952838,56.216294 C40.4863041,56.0733522 41.0346411,56.3899347 41.1775829,56.9234008 C41.3205247,57.4568669 41.0039422,58.0052038 40.4704761,58.1481457 C39.93701,58.2910875 39.3886731,57.974505 39.2457313,57.4410389 C39.1027894,56.9075728 39.4193719,56.3592358 39.952838,56.216294 Z M34,57 C34.5522847,57 35,57.4477153 35,58 C35,58.5522847 34.5522847,59 34,59 C33.4477153,59 33,58.5522847 33,58 C33,57.4477153 33.4477153,57 34,57 Z M28.047162,56.216294 C28.5806281,56.3592358 28.8972106,56.9075728 28.7542687,57.4410389 C28.6113269,57.974505 28.06299,58.2910875 27.5295239,58.1481457 C26.9960578,58.0052038 26.6794753,57.4568669 26.8224171,56.9234008 C26.9653589,56.3899347 27.5136959,56.0733522 28.047162,56.216294 Z M22.5,53.9185843 C22.9782926,54.1947267 23.1421678,54.8063171 22.8660254,55.2846097 C22.589883,55.7629023 21.9782926,55.9267775 21.5,55.6506351 C21.0217074,55.3744927 20.8578322,54.7629023 21.1339746,54.2846097 C21.410117,53.8063171 22.0217074,53.6424419 22.5,53.9185843 Z M17.736544,50.263456 C18.1270683,50.6539803 18.1270683,51.2871452 17.736544,51.6776695 C17.3460197,52.0681938 16.7128548,52.0681938 16.3223305,51.6776695 C15.9318062,51.2871452 15.9318062,50.6539803 16.3223305,50.263456 C16.7128548,49.8729317 17.3460197,49.8729317 17.736544,50.263456 Z M14.0814157,45.5 C14.3575581,45.9782926 14.1936829,46.589883 13.7153903,46.8660254 C13.2370977,47.1421678 12.6255073,46.9782926 12.3493649,46.5 C12.0732225,46.0217074 12.2370977,45.410117 12.7153903,45.1339746 C13.1936829,44.8578322 13.8052733,45.0217074 14.0814157,45.5 Z M11.783706,39.952838 C11.9266478,40.4863041 11.6100653,41.0346411 11.0765992,41.1775829 C10.5431331,41.3205247 9.99479615,41.0039422 9.85185434,40.4704761 C9.70891253,39.93701 10.025495,39.3886731 10.5589611,39.2457313 C11.0924272,39.1027894 11.6407642,39.4193719 11.783706,39.952838 Z M11,34 C11,34.5522847 10.5522847,35 10,35 C9.44771525,35 9,34.5522847 9,34 C9,33.4477153 9.44771525,33 10,33 C10.5522847,33 11,33.4477153 11,34 Z M11.783706,28.047162 C11.6407642,28.5806281 11.0924272,28.8972106 10.5589611,28.7542687 C10.025495,28.6113269 9.70891253,28.06299 9.85185434,27.5295239 C9.99479615,26.9960578 10.5431331,26.6794753 11.0765992,26.8224171 C11.6100653,26.9653589 11.9266478,27.5136959 11.783706,28.047162 Z M14.0814157,22.5 C13.8052733,22.9782926 13.1936829,23.1421678 12.7153903,22.8660254 C12.2370977,22.589883 12.0732225,21.9782926 12.3493649,21.5 C12.6255073,21.0217074 13.2370977,20.8578322 13.7153903,21.1339746 C14.1936829,21.410117 14.3575581,22.0217074 14.0814157,22.5 Z M17.736544,17.736544 C17.3460197,18.1270683 16.7128548,18.1270683 16.3223305,17.736544 C15.9318062,17.3460197 15.9318062,16.7128548 16.3223305,16.3223305 C16.7128548,15.9318062 17.3460197,15.9318062 17.736544,16.3223305 C18.1270683,16.7128548 18.1270683,17.3460197 17.736544,17.736544 Z M22.5,14.0814157 C22.0217074,14.3575581 21.410117,14.1936829 21.1339746,13.7153903 C20.8578322,13.2370977 21.0217074,12.6255073 21.5,12.3493649 C21.9782926,12.0732225 22.589883,12.2370977 22.8660254,12.7153903 C23.1421678,13.1936829 22.9782926,13.8052733 22.5,14.0814157 Z M28.047162,11.783706 C27.5136959,11.9266478 26.9653589,11.6100653 26.8224171,11.0765992 C26.6794753,10.5431331 26.9960578,9.99479615 27.5295239,9.85185434 C28.06299,9.70891253 28.6113269,10.025495 28.7542687,10.5589611 C28.8972106,11.0924272 28.5806281,11.6407642 28.047162,11.783706 Z" id="Oval-2" fill="#FFFFFF"></path>
                    </g>
                </g>
                <path d="M30,21 L30,47" id="Stroke-1" stroke="#FFFFFF" stroke-width="2" stroke-linecap="round" stroke-linejoin="round"></path>
                <path d="M34,21 L34,24" id="Stroke-3" stroke="#FFFFFF" stroke-width="2" stroke-linecap="round" stroke-linejoin="round"></path>
                <path d="M34,45 L34,47" id="Stroke-5" stroke="#FFFFFF" stroke-width="2" stroke-linecap="round" stroke-linejoin="round"></path>
                <path d="M27,24 L34,24 C36.209,24 38,25.791 38,28 C38,30.209 36.209,32 34,32 L32,32" id="Stroke-7" stroke="#FFFFFF" stroke-width="2" stroke-linecap="round" stroke-linejoin="round"></path>
                <path d="M32,32 L37,32 C40.313,32 43,34.687 43,38 C43,41.313 40.313,44 37,44 L27,44" id="Stroke-9" stroke="#FFFFFF" stroke-width="2" stroke-linecap="round" stroke-linejoin="round"></path>
            </g>
        </g>
    </g>
</svg>