<?xml version="1.0" encoding="UTF-8" standalone="no"?>
<svg width="74px" height="74px" viewBox="0 0 74 74" version="1.1" xmlns="http://www.w3.org/2000/svg" xmlns:xlink="http://www.w3.org/1999/xlink">
    <!-- Generator: Sketch 41.2 (35397) - http://www.bohemiancoding.com/sketch -->
    <title>white_labeling_icn</title>
    <desc>Created with Sketch.</desc>
    <defs>
        <linearGradient x1="50%" y1="-2.48949813e-15%" x2="50%" y2="100%" id="linearGradient-1">
            <stop stop-color="#FF8177" offset="0%"></stop>
            <stop stop-color="#FF3E2E" offset="100%"></stop>
        </linearGradient>
    </defs>
    <g id="04_Lykke_B2B" stroke="none" stroke-width="1" fill="none" fill-rule="evenodd">
        <g id="03_lykke_b2b/03a_how_we_do_it" transform="translate(-269.000000, -2486.000000)">
            <g id="white_labeling_icn" transform="translate(270.000000, 2487.000000)">
                <path d="M32.2866111,67.0315901 L28.3636038,71.4284762 C26.6249889,71.0532741 24.9329365,70.5529146 23.2973457,69.9372967 L22.3731797,64.1107906 C20.179846,63.0394601 18.1310909,61.7179164 16.2640832,60.1833285 L10.579855,61.7631899 C9.33076863,60.5239315 8.17173067,59.1940329 7.11343093,57.7841838 L9.47800155,52.4012273 C8.20413416,50.3289277 7.16616667,48.0960587 6.40150515,45.7400264 L0.759221288,43.9940163 C0.386902979,42.3192269 0.130859828,40.6006508 -2.55741262e-12,38.8471959 L4.89119618,35.6026229 C4.93295585,33.0431609 5.28358114,30.5587997 5.90742135,28.1851901 L2.10380486,23.6647404 C2.69298384,22.0609983 3.39266794,20.5106276 4.19362869,19.0228566 L10.0542617,18.9378481 C11.474818,16.7955435 13.1534172,14.8392182 15.0457256,13.1132061 L14.2910904,7.2635139 C15.615117,6.26500177 17.010053,5.35549853 18.4669974,4.54390404 L23.4357693,7.63624542 C25.800389,6.59009269 28.3196879,5.82974666 30.9498664,5.39901027 L33.4687349,0.0886588361 C34.3113007,0.0298810945 35.16183,0 36.0193385,0 C36.8111268,0 37.5969647,0.0254763854 38.3760773,0.0756541512 L40.8856613,5.36643182 C43.5484942,5.78442043 46.0993156,6.53995063 48.4929609,7.5878577 L53.4724652,4.48884078 C54.9025656,5.27959433 56.2733479,6.16451532 57.5764437,7.13523694 L56.8248875,12.9610225 C58.7867903,14.7246635 60.5233856,16.7340002 61.9862379,18.940597 L67.8465254,19.0256006 C68.6210494,20.4645631 69.3008402,21.9620819 69.8775455,23.5098012 L66.0861896,28.0156797 C66.7486294,30.4791838 67.1163687,33.0634409 67.1492825,35.7283263 L72.0296378,38.965708 C71.8979094,40.6563655 71.6497811,42.3143524 71.2932593,43.9316623 L65.6580434,45.6754768 C64.8697237,48.1226942 63.7867317,50.437643 62.4508641,52.5785325 L64.8065929,57.9413607 C63.7688092,59.3083524 62.6358888,60.5991627 61.417696,61.8039274 L55.7270927,60.222294 C53.8151912,61.7875021 51.7136527,63.1297028 49.4621955,64.2091774 L48.541832,70.0117105 C46.9187252,70.6116498 45.2407184,71.0983213 43.5174051,71.4621316 L39.5820709,67.0514296 C38.4129277,67.1846261 37.2241251,67.253062 36.0193385,67.253062 C34.7561115,67.253062 33.5104569,67.1778258 32.2866111,67.0315901 Z" id="Combined-Shape-Copy-2" stroke="#333333" stroke-width="2" stroke-linecap="round" stroke-linejoin="round"></path>
                <g id="Group-11-Copy-6" transform="translate(11.000000, 11.000000)">
                    <g id="comisssion_free_icn">
                        <ellipse id="Oval-5-Copy-6" fill="url(#linearGradient-1)" cx="25" cy="25" rx="25" ry="25"></ellipse>
                        <circle id="Oval-5-Copy-4" stroke="#FFFFFF" stroke-width="2" cx="25" cy="25" r="9"></circle>
                    </g>
                </g>
            </g>
        </g>
    </g>
</svg>