<?xml version="1.0" encoding="UTF-8" standalone="no"?>
<svg width="70px" height="70px" viewBox="0 0 70 70" version="1.1" xmlns="http://www.w3.org/2000/svg" xmlns:xlink="http://www.w3.org/1999/xlink">
    <!-- Generator: sketchtool 41.2 (35397) - http://www.bohemiancoding.com/sketch -->
    <title>E67BF37A-4D5C-46EE-A28B-97A6D77C3981</title>
    <desc>Created with sketchtool.</desc>
    <defs>
        <linearGradient x1="50%" y1="-1.11022302e-14%" x2="77.1281277%" y2="100%" id="linearGradient-1">
            <stop stop-color="#20D330" offset="0%"></stop>
            <stop stop-color="#13B72A" offset="100%"></stop>
        </linearGradient>
    </defs>
    <g id="03_Lykke_Corp" stroke="none" stroke-width="1" fill="none" fill-rule="evenodd">
        <g id="03_lykke_corp/06a_affiliates" transform="translate(-275.000000, -774.000000)">
            <g id="referral_link_icn" transform="translate(276.000000, 775.000000)">
                <g id="token_design_icn-copy">
                    <g id="token_design_icn">
                        <g id="comisssion_free_icn">
                            <circle id="Oval-5-Copy-4" stroke="#333333" stroke-width="2" cx="34" cy="34" r="34"></circle>
                            <ellipse id="Oval-5-Copy-6" fill="url(#linearGradient-1)" cx="34" cy="34" rx="29" ry="29"></ellipse>
                        </g>
                    </g>
                </g>
                <g id="link" transform="translate(18.000000, 18.000000)" stroke-linecap="round" stroke="#FFFFFF" stroke-width="2">
                    <g id="Group-13" transform="translate(16.000000, 16.000000) rotate(45.000000) translate(-16.000000, -16.000000) translate(10.000000, 0.000000)">
                        <path d="M-3.65929509e-13,8.0703125 L-3.65929509e-13,5.9920065 L-3.65929509e-13,5.9920065 C-3.65929509e-13,2.68271269 2.69303423,5.13367127e-13 6,5.13367127e-13 L6,5.13367127e-13 C9.3137085,5.13367127e-13 12,2.69728899 12,6.00065947 L12,13.9993405 C12,17.3134132 9.31588483,20 6,20 L6,20 L6,20" id="Rectangle-12"></path>
                        <path d="M1.0658141e-13,20.0703125 L1.0658141e-13,17.9920065 L1.0658141e-13,17.9920065 C1.0658141e-13,14.6827127 2.69303423,12 6,12 L6,12 C9.3137085,12 12,14.697289 12,18.0006595 L12,25.9993405 C12,29.3134132 9.31588483,32 6,32 L6,32 L6,32" id="Rectangle-12" transform="translate(6.000000, 22.000000) scale(-1, -1) translate(-6.000000, -22.000000) "></path>
                    </g>
                </g>
            </g>
        </g>
    </g>
</svg>