<?xml version="1.0" encoding="UTF-8" standalone="no"?>
<svg width="71px" height="71px" viewBox="0 0 71 71" version="1.1" xmlns="http://www.w3.org/2000/svg" xmlns:xlink="http://www.w3.org/1999/xlink">
    <!-- Generator: sketchtool 41.2 (35397) - http://www.bohemiancoding.com/sketch -->
    <title>DB2DEB09-BAD2-47B0-A825-9A44A9B9B24B</title>
    <desc>Created with sketchtool.</desc>
    <defs>
        <linearGradient x1="50%" y1="-2.48949813e-15%" x2="50%" y2="100%" id="linearGradient-1">
            <stop stop-color="#FF8177" offset="0%"></stop>
            <stop stop-color="#FF3E2E" offset="100%"></stop>
        </linearGradient>
    </defs>
    <g id="03_Lykke_Corp" stroke="none" stroke-width="1" fill="none" fill-rule="evenodd">
        <g id="03_lykke_corp/06a_affiliates" transform="translate(-275.000000, -889.000000)">
            <g id="share_icn" transform="translate(267.000000, 882.000000)">
                <path d="M21.8041767,68.7722445 C13.875775,62.5477194 8.78257953,52.8756256 8.78257953,42.0139522 C8.78257953,23.2362707 24.004898,8.01395223 42.7825795,8.01395223 C61.560261,8.01395223 76.7825795,23.2362707 76.7825795,42.0139522 C76.7825795,60.7916337 61.560261,76.0139522 42.7825795,76.0139522 C40.2784499,76.0139522 37.8375489,75.7432384 35.487546,75.2294802 L21.8214408,83.1950193 L21.8041767,68.7722445 Z" id="Combined-Shape" stroke="#333333" stroke-width="2" stroke-linecap="round" stroke-linejoin="round" transform="translate(42.782580, 45.604486) rotate(15.000000) translate(-42.782580, -45.604486) "></path>
                <ellipse id="Oval-5-Copy-6" fill="url(#linearGradient-1)" transform="translate(43.711878, 42.136297) rotate(15.000000) translate(-43.711878, -42.136297) " cx="43.711878" cy="42.1362967" rx="29" ry="29"></ellipse>
                <g id="Group-10-Copy-2" transform="translate(44.000000, 41.500000) scale(-1, -1) translate(-44.000000, -41.500000) translate(34.000000, 30.000000)" stroke="#FFFFFF" stroke-width="2" stroke-linecap="round">
                    <path d="M19.749707,0.145751953 L19.749707,8.57287598 C19.749707,13.2270481 15.9797043,16.9940798 11.319922,16.9867623 L0.782421875,16.9702148" id="Path-7"></path>
                    <polyline id="Path-6-Copy-3" transform="translate(2.400000, 17.000000) scale(-1, 1) rotate(-90.000000) translate(-2.400000, -17.000000) " points="-3.6 14.6 2.4 19.4 8.4 14.6"></polyline>
                </g>
            </g>
        </g>
    </g>
</svg>