<svg width="49" height="40" viewBox="0 0 49 40" xmlns="http://www.w3.org/2000/svg" xmlns:xlink="http://www.w3.org/1999/xlink"><title>7F832BCB-26C6-42AE-8201-59ECCC475C73</title><defs><rect id="a" width="34" height="23" rx="3"/><mask id="c" x="0" y="0" width="34" height="23" fill="#fff"><use xlink:href="#a"/></mask><rect id="b" width="34" height="23" rx="3"/><mask id="d" x="0" y="0" width="34" height="23" fill="#fff"><use xlink:href="#b"/></mask></defs><g stroke="#40474F" fill="none" fill-rule="evenodd"><g transform="rotate(135 21.073 18.126)"><use mask="url(#c)" stroke-width="4" fill="#FFF" xlink:href="#a"/><path d="M7 2v19M27 8h6M27 15h6" stroke-width="2" stroke-linecap="round"/></g><g transform="rotate(45 7.546 19.874)"><use mask="url(#d)" stroke-width="4" fill="#FFF" xlink:href="#b"/><path d="M7 2v19M27 8h6M27 15h6" stroke-width="2" stroke-linecap="round"/></g><path d="M29.698 13.92l-6.365 6.366c-1.17 1.17-3.074 1.165-4.248-.008l-.694-.694c-1.174-1.175-1.178-3.077-.007-4.247L24.75 8.97" stroke-width="2" stroke-linecap="round" stroke-linejoin="round" fill="#FFF"/></g></svg>