<?xml version="1.0" encoding="UTF-8" standalone="no"?>
<svg width="49px" height="40px" viewBox="0 0 49 40" version="1.1" xmlns="http://www.w3.org/2000/svg" xmlns:xlink="http://www.w3.org/1999/xlink">
    <!-- Generator: sketchtool 40.3 (33839) - http://www.bohemiancoding.com/sketch -->
    <title>7F832BCB-26C6-42AE-8201-59ECCC475C73</title>
    <desc>Created with sketchtool.</desc>
    <defs>
        <rect id="path-1" x="0" y="0" width="34" height="23" rx="3"></rect>
        <mask id="mask-2" maskContentUnits="userSpaceOnUse" maskUnits="objectBoundingBox" x="0" y="0" width="34" height="23" fill="white">
            <use xlink:href="#path-1"></use>
        </mask>
        <rect id="path-3" x="0" y="0" width="34" height="23" rx="3"></rect>
        <mask id="mask-4" maskContentUnits="userSpaceOnUse" maskUnits="objectBoundingBox" x="0" y="0" width="34" height="23" fill="white">
            <use xlink:href="#path-3"></use>
        </mask>
    </defs>
    <g id="Lykke-World" stroke="none" stroke-width="1" fill="none" fill-rule="evenodd">
        <g id="lykke_vanuatu" transform="translate(-472.000000, -925.000000)" stroke="#40474F">
            <g id="client_agreement" transform="translate(496.395184, 941.395184) rotate(45.000000) translate(-496.395184, -941.395184) translate(479.395184, 923.895184)">
                <g id="Group-8" transform="translate(22.500000, 17.000000) rotate(90.000000) translate(-22.500000, -17.000000) translate(5.500000, 5.500000)">
                    <use id="Rectangle-26" mask="url(#mask-2)" stroke-width="4" fill="#FFFFFF" xlink:href="#path-1"></use>
                    <path d="M7,2 L7,21" id="Path-125-Copy-2" stroke-width="2" stroke-linecap="round"></path>
                    <path d="M27,8 L33,8" id="Path-125-Copy-6" stroke-width="2" stroke-linecap="round"></path>
                    <path d="M27,15 L33,15" id="Path-125-Copy-10" stroke-width="2" stroke-linecap="round"></path>
                </g>
                <g id="Group-8" transform="translate(0.000000, 12.000000)">
                    <use id="Rectangle-26" mask="url(#mask-4)" stroke-width="4" fill="#FFFFFF" xlink:href="#path-3"></use>
                    <path d="M7,2 L7,21" id="Path-125-Copy-2" stroke-width="2" stroke-linecap="round"></path>
                    <path d="M27,8 L33,8" id="Path-125-Copy-6" stroke-width="2" stroke-linecap="round"></path>
                    <path d="M27,15 L33,15" id="Path-125-Copy-10" stroke-width="2" stroke-linecap="round"></path>
                </g>
                <path d="M19,12 L19,21.002848 C19,22.6581293 17.6503296,24 15.9907455,24 L15.0092545,24 C13.3472891,24 12,22.6583772 12,21.002848 L12,12" id="Rectangle" stroke-width="2" stroke-linecap="round" stroke-linejoin="round" fill="#FFFFFF"></path>
            </g>
        </g>
    </g>
</svg>