<svg width="40" height="40" viewBox="0 0 40 40" xmlns="http://www.w3.org/2000/svg" xmlns:xlink="http://www.w3.org/1999/xlink"><title>C8928741-5FC2-4AE4-8CF9-D7A4E6343E61</title><defs><path d="M18.858 38H3.008C1.35 38 0 36.66 0 35.003V2.997C0 1.342 1.334 0 2.996 0h26.008C30.66 0 32 1.342 32 2.99v35.016L18.858 38z" id="a"/><mask id="c" x="0" y="0" width="32" height="38.006" fill="#fff"><use xlink:href="#a"/></mask><rect id="b" x="22" y="33" width="18" height="7" rx="3"/><mask id="d" x="0" y="0" width="18" height="7" fill="#fff"><use xlink:href="#b"/></mask></defs><g stroke="#40474F" fill="none" fill-rule="evenodd"><use mask="url(#c)" stroke-width="4" fill="#FFF" xlink:href="#a"/><path d="M8 9h16M8 15h16M8 21h13M8 27h10" stroke-width="2" stroke-linecap="round"/><path stroke-width="2" fill="#FFF" d="M31 25l6 11H25z"/><circle stroke-width="2" stroke-linecap="round" fill="#FFF" cx="31" cy="25" r="4"/><use mask="url(#d)" stroke-width="4" fill="#FFF" xlink:href="#b"/></g></svg>