<?xml version="1.0" encoding="UTF-8" standalone="no"?>
<svg width="42px" height="42px" viewBox="0 0 42 42" version="1.1" xmlns="http://www.w3.org/2000/svg" xmlns:xlink="http://www.w3.org/1999/xlink">
    <!-- Generator: sketchtool 40.3 (33839) - http://www.bohemiancoding.com/sketch -->
    <title>30FF3A73-E1A4-443D-B1A0-8C0B5C81F799</title>
    <desc>Created with sketchtool.</desc>
    <defs></defs>
    <g id="Lykke-World" stroke="none" stroke-width="1" fill="none" fill-rule="evenodd">
        <g id="lykke_vanuatu" transform="translate(-874.000000, -783.000000)" stroke="#40474F" stroke-width="2">
            <g id="legal_icn" transform="translate(875.000000, 784.000000)">
                <path d="M20,40 C31.045695,40 40,31.045695 40,20 C40,8.954305 31.045695,0 20,0 C8.954305,0 0,8.954305 0,20 C0,31.045695 8.954305,40 20,40 Z" id="Oval"></path>
                <path d="M28,24.5 L28,24.5 C26.4249534,27.1901062 23.4810727,29 20.1093333,29 C15.0783874,29 11,24.9705627 11,20 C11,15.0294373 15.0783874,11 20.1093333,11 C23.4810727,11 26.4249534,12.8098938 28,15.5" id="Combined-Shape" stroke-linecap="round" stroke-linejoin="round"></path>
            </g>
        </g>
    </g>
</svg>