<?xml version="1.0" encoding="UTF-8" standalone="no"?>
<svg width="33px" height="38px" viewBox="0 0 33 38" version="1.1" xmlns="http://www.w3.org/2000/svg" xmlns:xlink="http://www.w3.org/1999/xlink">
    <!-- Generator: sketchtool 40.3 (33839) - http://www.bohemiancoding.com/sketch -->
    <title>57748962-BA69-4D2F-8C3E-F744C719186B</title>
    <desc>Created with sketchtool.</desc>
    <defs>
        <path d="M23.7053562,37.296984 C23.3170911,37.685249 22.5474037,38 22.0113411,38 L3.01855469,38 C1.36065273,38.145752 0.0185546875,36.7933118 0.0185546875,35 L0.0185546875,3 C0.0185546875,1.48784999 1.37099481,0.145751953 3.01855469,0 L30.0023401,0 C31.657902,0 33,1.35244012 33,2.99765987 L33,27.0066967 C33,27.5565754 32.6898268,28.3125133 32.296984,28.7053562 L23.7053562,37.296984 Z" id="path-1"></path>
        <mask id="mask-2" maskContentUnits="userSpaceOnUse" maskUnits="objectBoundingBox" x="0" y="0" width="32.9814453" height="38.049556" fill="white">
            <use xlink:href="#path-1"></use>
        </mask>
        <path d="M21,38.0012144 L21,28.9987856 C21,27.3426021 22.3422643,26 23.9987856,26 L33.0012144,26" id="path-3"></path>
        <mask id="mask-4" maskContentUnits="userSpaceOnUse" maskUnits="objectBoundingBox" x="0" y="0" width="12.0012144" height="12.0012144" fill="white">
            <use xlink:href="#path-3"></use>
        </mask>
    </defs>
    <g id="Lykke-World" stroke="none" stroke-width="1" fill="none" fill-rule="evenodd">
        <g id="lykke_vanuatu" transform="translate(-879.000000, -856.000000)" stroke="#40474F">
            <g id="order_policy_icn" transform="translate(879.000000, 856.000000)">
                <g id="Group-3">
                    <use id="Rectangle-26-Copy-4" mask="url(#mask-2)" stroke-width="4" xlink:href="#path-1"></use>
                    <use id="Rectangle-26" mask="url(#mask-4)" stroke-width="4" stroke-linecap="square" xlink:href="#path-3"></use>
                    <path d="M7,23 L14,23" id="Path-125-Copy-2" stroke-width="2" stroke-linecap="round"></path>
                    <path d="M7,29 L14,29" id="Path-125-Copy-6" stroke-width="2" stroke-linecap="round"></path>
                </g>
            </g>
        </g>
    </g>
</svg>