<svg width="33" height="38" viewBox="0 0 33 38" xmlns="http://www.w3.org/2000/svg" xmlns:xlink="http://www.w3.org/1999/xlink"><title>57748962-BA69-4D2F-8C3E-F744C719186B</title><defs><path d="M23.705 37.297c-.388.388-1.158.703-1.694.703H3.02c-1.66.146-3-1.207-3-3V3c0-1.512 1.35-2.854 3-3H30C31.658 0 33 1.352 33 2.998v24.01c0 .55-.31 1.305-.703 1.697l-8.592 8.592z" id="a"/><mask id="c" x="0" y="0" width="32.981" height="38.05" fill="#fff"><use xlink:href="#a"/></mask><path d="M21 38v-9c0-1.657 1.342-3 3-3h9" id="b"/><mask id="d" x="0" y="0" width="12.001" height="12.001" fill="#fff"><use xlink:href="#b"/></mask></defs><g stroke="#40474F" fill="none" fill-rule="evenodd"><use mask="url(#c)" stroke-width="4" xlink:href="#a"/><use mask="url(#d)" stroke-width="4" stroke-linecap="square" xlink:href="#b"/><path d="M7 23h7M7 29h7" stroke-width="2" stroke-linecap="round"/></g></svg>