<svg width="34" height="38" viewBox="0 0 34 38" xmlns="http://www.w3.org/2000/svg" xmlns:xlink="http://www.w3.org/1999/xlink"><title>24A6BA17-D81A-418E-8934-9511B8388BB2</title><defs><path d="M24.705 37.297c-.388.388-1.14.703-1.702.703H2.998C1.342 38 0 36.648 0 35.002V2.998C0 1.342 1.352 0 2.998 0h28.004C32.658 0 34 1.352 34 2.998v24.01c0 .55-.31 1.305-.703 1.697l-8.592 8.592z" id="a"/><mask id="c" x="0" y="0" width="34" height="38" fill="#fff"><use xlink:href="#a"/></mask><path d="M22 38v-9c0-1.657 1.342-3 3-3h9" id="b"/><mask id="d" x="0" y="0" width="12.001" height="12.001" fill="#fff"><use xlink:href="#b"/></mask></defs><g stroke="#40474F" fill="none" fill-rule="evenodd"><use mask="url(#c)" stroke-width="4" xlink:href="#a"/><path d="M2 8h31" stroke-width="2" stroke-linecap="round"/><use mask="url(#d)" stroke-width="4" stroke-linecap="square" xlink:href="#b"/><path d="M7 15h20M7 21h20M7 27h10" stroke-width="2" stroke-linecap="round"/></g></svg>