<svg width="36" height="30" viewBox="0 0 36 30" xmlns="http://www.w3.org/2000/svg" xmlns:xlink="http://www.w3.org/1999/xlink"><title>836AC44F-A275-4149-9C06-B7933CDCC1BA</title><defs><path d="M7 15c3.314 0 6-2.686 6-6s-2.686-6-6-6-6 2.686-6 6 2.686 6 6 6z" id="a"/><mask id="b" x="0" y="0" width="12" height="12" fill="#fff"><use xlink:href="#a"/></mask></defs><g stroke="#40474F" fill="none" fill-rule="evenodd"><path d="M5.912 18H4c-1.657 0-3-1.343-3-2.994V3.994C1 2.34 2.343 1 4.002 1h27.996C33.656 1 35 2.343 35 3.994v11.012C35 16.66 33.665 18 32.003 18h-1.89" stroke-width="2" stroke-linecap="round" fill="#FFF"/><g transform="rotate(90 11 16)"><path d="M0 0h23c.552 0 1 .445 1 .993v16.014c0 .548-.447.993-1 .993H0" stroke-width="2" stroke-linecap="round" stroke-linejoin="round" fill="#FFF"/><use mask="url(#b)" stroke-width="4" xlink:href="#a"/></g></g></svg>