<svg xmlns="http://www.w3.org/2000/svg" width="72" height="62" viewBox="0 0 72 62">
    <g fill="none" fill-rule="evenodd">
        <path stroke="#333" stroke-linecap="round" stroke-linejoin="round" stroke-width="2" d="M1 5.998c0-2.212 1.8-4.004 4.005-4.004L52.995 2A4.002 4.002 0 0 1 57 6v2.994M7 9h54.009A4 4 0 0 1 65 13v13m0 18v13c0 2.21-1.795 4-4.003 4H5.003A4.007 4.007 0 0 1 1 57V6"/>
        <path fill="#FFAE2C" d="M60 26.055a9.001 9.001 0 0 0 0 17.89v11.058c0 .55-.45.997-1.007.997H7.007A1 1 0 0 1 6 55.003V14.997c0-.55.45-.997 1.007-.997h51.986a1 1 0 0 1 1.007.997v11.058z"/>
        <g stroke="#FFF" stroke-linecap="round" stroke-width="2">
            <path d="M21.05 26.146v5.427a5.41 5.41 0 0 0 5.423 5.418l13.545-.02"/>
            <path d="M36 43l4.8-6-4.8-6"/>
        </g>
        <g stroke="#333" stroke-width="2">
            <path stroke-linecap="round" stroke-linejoin="round" d="M61 32a3 3 0 1 0 0 6"/>
            <path d="M70.058 27.99a1.997 1.997 0 0 0-1.997-1.994L61 26a9 9 0 1 0 0 18h7.029a2.004 2.004 0 0 0 2.008-1.996l.02-14.013z"/>
        </g>
    </g>
</svg>
