<svg xmlns="http://www.w3.org/2000/svg" width="63" height="70" viewBox="0 0 63 70">
    <g fill="none" fill-rule="evenodd">
        <path d="M30 12c15.439 0 28 12.561 28 28S45.439 68 30 68 2 55.439 2 40s12.561-28 28-28"/>
        <path fill="#13B72A" d="M54 40c0 13.233-10.767 24-24 24S6 53.233 6 40s10.767-24 24-24 24 10.767 24 24z"/>
        <path fill="#333" d="M30 10C13.432 10 0 23.431 0 40c0 16.568 13.432 30 30 30 16.569 0 30-13.432 30-30 0-16.569-13.431-30-30-30m0 2c15.439 0 28 12.561 28 28S45.439 68 30 68 2 55.439 2 40s12.561-28 28-28"/>
        <path fill="#333" fill-rule="nonzero" d="M21 5a1 1 0 0 1-1-1V3a1 1 0 0 1 1-1h18a1 1 0 0 1 1 1v1a1 1 0 0 1-1 1H21zm21-1V3a3 3 0 0 0-3-3H21a3 3 0 0 0-3 3v1a3 3 0 0 0 3 3h18a3 3 0 0 0 3-3zM52.293 12.414a1 1 0 0 1 0-1.414l.707-.707a1 1 0 0 1 1.415 0l5.657 5.656a1 1 0 0 1 0 1.415l-.708.706a1 1 0 0 1-1.414 0l-5.657-5.656zm8.485 7.07l.707-.706a3 3 0 0 0 .001-4.243L55.83 8.88a3 3 0 0 0-4.243 0l-.707.707a3 3 0 0 0 0 4.242l5.657 5.657a3 3 0 0 0 4.242 0z"/>
        <path fill="#333" fill-rule="nonzero" d="M31 7a1 1 0 0 0-2 0v4a1 1 0 0 0 2 0V7zM54.535 16.707a1 1 0 0 0-1.414-1.414l-2.828 2.828a1 1 0 0 0 1.414 1.414l2.828-2.828z"/>
        <path stroke="#FFF" stroke-linecap="round" stroke-width="2" d="M30 27v13.401l9.255 9.19"/>
    </g>
</svg>
