<svg xmlns="http://www.w3.org/2000/svg" width="62" height="72" viewBox="0 0 62 72">
    <g fill="none" fill-rule="evenodd">
        <path stroke="#333" stroke-linecap="round" stroke-linejoin="round" stroke-width="2" d="M61 16l-20.087 6L1 10M61 50H40.913L1 62"/>
        <path fill="#FF3E2E" d="M62 22c0-.552-.439-.875-.957-.727L41 27 .953 15.279c-.526-.154-.953.164-.953.718v40.006c0 .55.433.87.953.718L41 45h20.001A1 1 0 0 0 62 44V22z"/>
        <g stroke="#333" stroke-linecap="round" stroke-width="2">
            <path d="M46 8l-5 4-5-4M41 11V1"/>
        </g>
        <g stroke="#333" stroke-linecap="round" stroke-width="2">
            <path d="M46 64l-5-4-5 4M41 61v10"/>
        </g>
    </g>
</svg>
