<?xml version="1.0" encoding="UTF-8" standalone="no"?>
<svg width="203px" height="60px" viewBox="0 0 203 60" version="1.1" xmlns="http://www.w3.org/2000/svg" xmlns:xlink="http://www.w3.org/1999/xlink">
    <!-- Generator: Sketch 39.1 (31720) - http://www.bohemiancoding.com/sketch -->
    <title>google-play</title>
    <desc>Created with Sketch.</desc>
    <defs>
        <linearGradient x1="91.5361538%" y1="4.8388%" x2="-37.5592308%" y2="71.9684%" id="linearGradient-1">
            <stop stop-color="#00A0FF" offset="0%"></stop>
            <stop stop-color="#00A1FF" offset="0.657445%"></stop>
            <stop stop-color="#00BEFF" offset="26.01%"></stop>
            <stop stop-color="#00D2FF" offset="51.22%"></stop>
            <stop stop-color="#00DFFF" offset="76.04%"></stop>
            <stop stop-color="#00E3FF" offset="100%"></stop>
        </linearGradient>
        <linearGradient x1="107.728079%" y1="49.4282353%" x2="-130.665025%" y2="49.4282353%" id="linearGradient-2">
            <stop stop-color="#FFE000" offset="0%"></stop>
            <stop stop-color="#FFBD00" offset="40.87%"></stop>
            <stop stop-color="#FFA500" offset="77.54%"></stop>
            <stop stop-color="#FF9C00" offset="100%"></stop>
        </linearGradient>
        <linearGradient x1="86.3892216%" y1="17.8150459%" x2="-49.888024%" y2="194.392791%" id="linearGradient-3">
            <stop stop-color="#FF3A44" offset="0%"></stop>
            <stop stop-color="#C31162" offset="100%"></stop>
        </linearGradient>
        <linearGradient x1="-18.5790419%" y1="-54.5266535%" x2="42.2748503%" y2="24.6901019%" id="linearGradient-4">
            <stop stop-color="#32A071" offset="0%"></stop>
            <stop stop-color="#2DA771" offset="6.85%"></stop>
            <stop stop-color="#15CF74" offset="47.62%"></stop>
            <stop stop-color="#06E775" offset="80.09%"></stop>
            <stop stop-color="#00F076" offset="100%"></stop>
        </linearGradient>
    </defs>
    <g id="Lykke_Wallet" stroke="none" stroke-width="1" fill="none" fill-rule="evenodd">
        <g id="01a_lykke_wallet_landing" transform="translate(-670.000000, -461.000000)">
            <g id="Group-9" transform="translate(447.000000, 461.000000)">
                <g id="google-play" transform="translate(223.000000, 0.000000)">
                    <g id="Group">
                        <path d="M7.5,60 C3.3,60 0,56.7 0,52.5 L0,7.5 C0,3.3 3.3,0 7.5,0 L195,0 C199.2,0 202.5,3.3 202.5,7.5 L202.5,52.5 C202.5,56.55 199.2,60 195,60 L7.5,60 Z" id="Shape" fill="#000000"></path>
                        <g transform="translate(61.500000, 10.000000)" id="Shape" stroke="#FFFFFF" stroke-width="0.2" fill="#FFFFFF">
                            <path d="M9.6,5.3 C9.6,6.5 9.3,7.55 8.55,8.3 C7.65,9.2 6.6,9.65 5.25,9.65 C3.9,9.65 2.85,9.2 1.95,8.3 C1.05,7.4 0.6,6.35 0.6,5 C0.6,3.65 1.05,2.6 1.95,1.7 C2.85,0.8 3.9,0.35 5.25,0.35 C5.85,0.35 6.45,0.5 7.05,0.8 C7.65,1.1 8.1,1.4 8.4,1.85 L7.65,2.6 C7.05,1.85 6.3,1.55 5.25,1.55 C4.35,1.55 3.45,1.85 2.85,2.6 C2.1,3.2 1.8,4.1 1.8,5.15 C1.8,6.2 2.1,7.1 2.85,7.7 C3.6,8.3 4.35,8.75 5.25,8.75 C6.3,8.75 7.05,8.45 7.8,7.7 C8.25,7.25 8.55,6.65 8.55,5.9 L5.25,5.9 L5.25,4.85 L9.6,4.85 C9.6,4.85 9.6,5.15 9.6,5.3 L9.6,5.3 Z"></path>
                            <polygon points="16.5 1.55 12.45 1.55 12.45 4.4 16.2 4.4 16.2 5.45 12.45 5.45 12.45 8.3 16.5 8.3 16.5 9.5 11.25 9.5 11.25 0.5 16.5 0.5"></polygon>
                            <polygon points="21.45 9.5 20.25 9.5 20.25 1.55 17.7 1.55 17.7 0.5 24 0.5 24 1.55 21.45 1.55"></polygon>
                            <polygon points="28.35 9.5 28.35 0.5 29.55 0.5 29.55 9.5"></polygon>
                            <polygon points="34.65 9.5 33.45 9.5 33.45 1.55 30.9 1.55 30.9 0.5 37.05 0.5 37.05 1.55 34.5 1.55 34.5 9.5"></polygon>
                            <path d="M48.9,8.3 C48,9.2 46.95,9.65 45.6,9.65 C44.25,9.65 43.2,9.2 42.3,8.3 C41.4,7.4 40.95,6.35 40.95,5 C40.95,3.65 41.4,2.6 42.3,1.7 C43.2,0.8 44.25,0.35 45.6,0.35 C46.95,0.35 48,0.8 48.9,1.7 C49.8,2.6 50.25,3.65 50.25,5 C50.25,6.35 49.8,7.4 48.9,8.3 L48.9,8.3 Z M43.2,7.55 C43.8,8.15 44.7,8.6 45.6,8.6 C46.5,8.6 47.4,8.3 48,7.55 C48.6,6.95 49.05,6.05 49.05,5 C49.05,3.95 48.75,3.05 48,2.45 C47.4,1.85 46.5,1.4 45.6,1.4 C44.7,1.4 43.8,1.7 43.2,2.45 C42.6,3.05 42.15,3.95 42.15,5 C42.15,6.05 42.45,6.95 43.2,7.55 L43.2,7.55 Z"></path>
                            <polygon points="51.9 9.5 51.9 0.5 53.25 0.5 57.6 7.55 57.6 7.55 57.6 5.75 57.6 0.5 58.8 0.5 58.8 9.5 57.6 9.5 52.95 2.15 52.95 2.15 52.95 3.95 52.95 9.5"></polygon>
                        </g>
                        <path d="M102.15,32.7 C98.55,32.7 95.7,35.4 95.7,39.15 C95.7,42.75 98.55,45.6 102.15,45.6 C105.75,45.6 108.6,42.9 108.6,39.15 C108.6,35.25 105.75,32.7 102.15,32.7 L102.15,32.7 Z M102.15,42.9 C100.2,42.9 98.55,41.25 98.55,39 C98.55,36.75 100.2,35.1 102.15,35.1 C104.1,35.1 105.75,36.6 105.75,39 C105.75,41.25 104.1,42.9 102.15,42.9 L102.15,42.9 Z M88.2,32.7 C84.6,32.7 81.75,35.4 81.75,39.15 C81.75,42.75 84.6,45.6 88.2,45.6 C91.8,45.6 94.65,42.9 94.65,39.15 C94.65,35.25 91.8,32.7 88.2,32.7 L88.2,32.7 Z M88.2,42.9 C86.25,42.9 84.6,41.25 84.6,39 C84.6,36.75 86.25,35.1 88.2,35.1 C90.15,35.1 91.8,36.6 91.8,39 C91.8,41.25 90.15,42.9 88.2,42.9 L88.2,42.9 Z M71.55,34.65 L71.55,37.35 L78,37.35 C77.85,38.85 77.25,40.05 76.5,40.8 C75.6,41.7 74.1,42.75 71.55,42.75 C67.5,42.75 64.5,39.6 64.5,35.55 C64.5,31.5 67.65,28.35 71.55,28.35 C73.65,28.35 75.3,29.25 76.5,30.3 L78.45,28.35 C76.8,26.85 74.7,25.65 71.7,25.65 C66.3,25.65 61.65,30.15 61.65,35.55 C61.65,40.95 66.3,45.45 71.7,45.45 C74.7,45.45 76.8,44.55 78.6,42.6 C80.4,40.8 81,38.25 81,36.3 C81,35.7 81,35.1 80.85,34.65 L71.55,34.65 L71.55,34.65 Z M139.65,36.75 C139.05,35.25 137.55,32.7 134.25,32.7 C130.95,32.7 128.25,35.25 128.25,39.15 C128.25,42.75 130.95,45.6 134.55,45.6 C137.4,45.6 139.2,43.8 139.8,42.75 L137.7,41.25 C136.95,42.3 136.05,43.05 134.55,43.05 C133.05,43.05 132.15,42.45 131.4,41.1 L139.95,37.5 L139.65,36.75 L139.65,36.75 Z M130.95,38.85 C130.95,36.45 132.9,35.1 134.25,35.1 C135.3,35.1 136.35,35.7 136.65,36.45 L130.95,38.85 L130.95,38.85 Z M123.9,45 L126.75,45 L126.75,26.25 L123.9,26.25 L123.9,45 L123.9,45 Z M119.4,34.05 L119.4,34.05 C118.65,33.3 117.45,32.55 115.95,32.55 C112.8,32.55 109.8,35.4 109.8,39 C109.8,42.6 112.65,45.3 115.95,45.3 C117.45,45.3 118.65,44.55 119.25,43.8 L119.4,43.8 L119.4,44.7 C119.4,47.1 118.05,48.45 115.95,48.45 C114.3,48.45 113.1,47.25 112.8,46.2 L110.4,47.25 C111.15,48.9 112.95,51 116.1,51 C119.4,51 122.1,49.05 122.1,44.4 L122.1,33 L119.4,33 L119.4,34.05 L119.4,34.05 Z M116.1,42.9 C114.15,42.9 112.5,41.25 112.5,39 C112.5,36.75 114.15,35.1 116.1,35.1 C118.05,35.1 119.55,36.75 119.55,39 C119.55,41.25 118.05,42.9 116.1,42.9 L116.1,42.9 Z M152.7,26.25 L145.95,26.25 L145.95,45 L148.8,45 L148.8,37.95 L152.7,37.95 C155.85,37.95 158.85,35.7 158.85,32.1 C158.85,28.5 155.85,26.25 152.7,26.25 L152.7,26.25 Z M152.85,35.25 L148.8,35.25 L148.8,28.8 L152.85,28.8 C154.95,28.8 156.15,30.6 156.15,31.95 C156,33.6 154.8,35.25 152.85,35.25 L152.85,35.25 Z M170.1,32.55 C168,32.55 165.9,33.45 165.15,35.4 L167.7,36.45 C168.3,35.4 169.2,35.1 170.25,35.1 C171.75,35.1 173.1,36 173.25,37.5 L173.25,37.65 C172.8,37.35 171.6,36.9 170.4,36.9 C167.7,36.9 165,38.4 165,41.1 C165,43.65 167.25,45.3 169.65,45.3 C171.6,45.3 172.5,44.4 173.25,43.5 L173.4,43.5 L173.4,45 L176.1,45 L176.1,37.8 C175.8,34.5 173.25,32.55 170.1,32.55 L170.1,32.55 Z M169.8,42.9 C168.9,42.9 167.55,42.45 167.55,41.25 C167.55,39.75 169.2,39.3 170.55,39.3 C171.75,39.3 172.35,39.6 173.1,39.9 C172.8,41.7 171.3,42.9 169.8,42.9 L169.8,42.9 Z M185.55,33 L182.4,41.1 L182.25,41.1 L178.95,33 L175.95,33 L180.9,44.4 L178.05,50.7 L180.9,50.7 L188.55,33 L185.55,33 L185.55,33 Z M160.35,45 L163.2,45 L163.2,26.25 L160.35,26.25 L160.35,45 L160.35,45 Z" id="Shape" fill="#FFFFFF"></path>
                        <g transform="translate(14.500000, 10.500000)" id="Shape">
                            <path d="M1.1,0.75 C0.65,1.2 0.35,1.95 0.35,2.85 L0.35,36 C0.35,36.9 0.65,37.65 1.1,38.1 L1.25,38.25 L19.85,19.65 L19.85,19.5 L19.85,19.35 L1.1,0.75 L1.1,0.75 L1.1,0.75 Z" fill="url(#linearGradient-1)"></path>
                            <path d="M26,25.95 L19.85,19.8 L19.85,19.5 L19.85,19.35 L26,13.2 L26.15,13.35 L33.5,17.55 C35.6,18.75 35.6,20.7 33.5,21.9 L26,25.95 L26,25.95 L26,25.95 Z" fill="url(#linearGradient-2)"></path>
                            <path d="M26.15,25.8 L19.85,19.5 L1.1,38.25 C1.85,39 2.9,39 4.25,38.4 L26.15,25.8" fill="url(#linearGradient-3)"></path>
                            <path d="M26.15,13.2 L4.25,0.75 C2.9,-6.30606678e-14 1.85,0.15 1.1,0.9 L19.85,19.5 L26.15,13.2 L26.15,13.2 Z" fill="url(#linearGradient-4)"></path>
                            <g transform="translate(0.500000, 25.500000)" fill="#000000">
                                <path d="M25.5,0.15 L3.75,12.45 C2.55,13.2 1.5,13.05 0.75,12.45 L0.75,12.45 L0.6,12.6 L0.6,12.6 L0.75,12.75 L0.75,12.75 C1.5,13.35 2.55,13.5 3.75,12.75 L25.5,0.15 L25.5,0.15 L25.5,0.15 Z" opacity="0.2"></path>
                                <path d="M0.6,12.45 C0.15,12 0,11.25 0,10.35 L0,10.5 C0,11.4 0.3,12.15 0.75,12.6 L0.75,12.45 L0.6,12.45 L0.6,12.45 Z" opacity="0.12"></path>
                            </g>
                            <path d="M33.5,21.45 L26,25.65 L26.15,25.8 L33.5,21.6 C34.55,21 35,20.25 35,19.5 L35,19.5 C35,20.25 34.4,20.85 33.5,21.45 L33.5,21.45 Z" fill="#000000" opacity="0.12"></path>
                            <path d="M4.25,0.9 L33.5,17.55 C34.4,18.15 35,18.75 35,19.5 L35,19.5 C35,18.75 34.55,18 33.5,17.4 L4.25,0.75 C2.15,-0.45 0.5,0.6 0.5,3 L0.5,3.15 C0.5,0.75 2.15,-0.3 4.25,0.9 L4.25,0.9 Z" fill="#FFFFFF" opacity="0.25"></path>
                        </g>
                    </g>
                </g>
            </g>
        </g>
    </g>
</svg>