<?xml version="1.0" encoding="UTF-8" standalone="no"?>
<svg width="40px" height="40px" viewBox="0 0 40 40" version="1.1" xmlns="http://www.w3.org/2000/svg" xmlns:xlink="http://www.w3.org/1999/xlink">
    <!-- Generator: sketchtool 40.3 (33839) - http://www.bohemiancoding.com/sketch -->
    <title>C8928741-5FC2-4AE4-8CF9-D7A4E6343E61</title>
    <desc>Created with sketchtool.</desc>
    <defs>
        <path d="M18.8579102,38 L3.00894406,38 C1.34715014,38 0,36.6612917 0,35.003476 L0,2.99652399 C0,1.34158949 1.33425951,0 2.99610022,0 L29.0038998,0 C30.6586002,0 32,1.34206781 32,2.99136457 L32,16 L32,38.0056811 L18.8579102,38 Z" id="path-1"></path>
        <mask id="mask-2" maskContentUnits="userSpaceOnUse" maskUnits="objectBoundingBox" x="0" y="0" width="32" height="38.0056811" fill="white">
            <use xlink:href="#path-1"></use>
        </mask>
        <rect id="path-3" x="22" y="33" width="18" height="7" rx="3"></rect>
        <mask id="mask-4" maskContentUnits="userSpaceOnUse" maskUnits="objectBoundingBox" x="0" y="0" width="18" height="7" fill="white">
            <use xlink:href="#path-3"></use>
        </mask>
    </defs>
    <g id="Lykke-World" stroke="none" stroke-width="1" fill="none" fill-rule="evenodd">
        <g id="lykke_vanuatu" transform="translate(-481.000000, -997.000000)" stroke="#40474F">
            <g id="complaints_icn" transform="translate(481.000000, 997.000000)">
                <g id="Group-2">
                    <use id="Rectangle-26-Copy" mask="url(#mask-2)" stroke-width="4" fill="#FFFFFF" xlink:href="#path-1"></use>
                    <path d="M8,9 L24,9" id="Path-125" stroke-width="2" stroke-linecap="round"></path>
                    <path d="M8,15 L24,15" id="Path-125-Copy-3" stroke-width="2" stroke-linecap="round"></path>
                    <path d="M8,21 L21,21" id="Path-125-Copy-4" stroke-width="2" stroke-linecap="round"></path>
                    <path d="M8,27 L18,27" id="Path-125-Copy-5" stroke-width="2" stroke-linecap="round"></path>
                    <polygon id="Triangle" stroke-width="2" fill="#FFFFFF" points="31 25 37 36 25 36"></polygon>
                    <circle id="Oval-2" stroke-width="2" stroke-linecap="round" fill="#FFFFFF" cx="31" cy="25" r="4"></circle>
                    <use id="Rectangle-26-Copy" mask="url(#mask-4)" stroke-width="4" fill="#FFFFFF" xlink:href="#path-3"></use>
                </g>
            </g>
        </g>
    </g>
</svg>