<?xml version="1.0" encoding="UTF-8" standalone="no"?>
<svg width="40px" height="37px" viewBox="0 0 40 37" version="1.1" xmlns="http://www.w3.org/2000/svg" xmlns:xlink="http://www.w3.org/1999/xlink">
    <!-- Generator: sketchtool 40.3 (33839) - http://www.bohemiancoding.com/sketch -->
    <title>F06066D9-DFEC-41DD-AE42-8679E9C682FD</title>
    <desc>Created with sketchtool.</desc>
    <defs></defs>
    <g id="Lykke-World" stroke="none" stroke-width="1" fill="none" fill-rule="evenodd">
        <g id="lykke_vanuatu" transform="translate(-876.000000, -927.000000)" stroke="#40474F" stroke-width="2">
            <g id="risk_icn" transform="translate(877.000000, 928.000000)">
                <path d="M4.17920462,28.1274602 C1.50465053,25.1502574 0,21.3021368 0,17.1 C0,7.65593078 7.6,7.1028237e-10 19,0 C30.4,-7.10282369e-10 38,7.65593078 38,17.1 C38,26.5440692 30.4,34.2 19,34.2 C14.9073215,34.2 11.3044095,33.2132581 8.36709375,31.5112826 C4.71131096,33.7555045 1.41077391,33.179067 1.41077391,33.179067 C1.13323056,33.154585 1.04245109,32.9403747 1.19573379,32.7102724 C1.19573379,32.7102724 2.63543892,30.5610216 4.17920462,28.1274602 Z" id="Combined-Shape"></path>
                <polyline id="Path-140" stroke-linecap="round" points="18 9 16 17 22 17 19 25"></polyline>
            </g>
        </g>
    </g>
</svg>