<?xml version="1.0" encoding="UTF-8" standalone="no"?>
<svg width="24px" height="19px" viewBox="0 0 24 19" version="1.1" xmlns="http://www.w3.org/2000/svg" xmlns:xlink="http://www.w3.org/1999/xlink">
    <!-- Generator: Sketch 42 (36781) - http://www.bohemiancoding.com/sketch -->
    <title>“</title>
    <desc>Created with Sketch.</desc>
    <defs></defs>
    <g id="03_Lykke_Corp" stroke="none" stroke-width="1" fill="none" fill-rule="evenodd">
        <g id="03_lykke_corp/05a_invest" transform="translate(-275.000000, -4666.000000)" fill="#AB00FF">
            <path d="M275,4678.36364 C275,4682.58182 277.618182,4684.98182 280.6,4684.98182 C283.363636,4684.98182 285.545455,4682.72727 285.545455,4680.03636 C285.545455,4677.34545 283.654545,4675.45455 281.254545,4675.45455 C280.745455,4675.45455 280.163636,4675.52727 280.018182,4675.6 C280.454545,4673.12727 282.927273,4670.14545 285.254545,4668.76364 L281.763636,4666 C277.763636,4668.83636 275,4673.34545 275,4678.36364 Z M288.454545,4678.36364 C288.454545,4682.58182 291.072727,4684.98182 294.054545,4684.98182 C296.818182,4684.98182 299,4682.72727 299,4680.03636 C299,4677.34545 297.109091,4675.45455 294.709091,4675.45455 C294.2,4675.45455 293.618182,4675.52727 293.472727,4675.6 C293.909091,4673.12727 296.381818,4670.14545 298.709091,4668.76364 L295.218182,4666 C291.218182,4668.83636 288.454545,4673.34545 288.454545,4678.36364 Z" id="“"></path>
        </g>
    </g>
</svg>