<?xml version="1.0" encoding="utf-8"?>
<!-- Generator: Adobe Illustrator 21.1.0, SVG Export Plug-In . SVG Version: 6.00 Build 0)  -->
<svg version="1.1" id="Layer_1" xmlns="http://www.w3.org/2000/svg" xmlns:xlink="http://www.w3.org/1999/xlink" x="0px" y="0px"
	 viewBox="0 0 816 561.1" style="enable-background:new 0 0 816 561.1;" xml:space="preserve">
<style type="text/css">
	.st0{fill:#333333;}
	.st1{fill:url(#SVGID_1_);}
	.st2{fill:#FFFFFF;}
</style>
<g>
	<g>
		<path class="st0" d="M778.4,559.8H36.8c-18.3,0-33.2-14.9-33.2-33.2V39.5c0-18.3,14.9-33.2,33.2-33.2h741.7
			c18.3,0,33.2,14.9,33.2,33.2v487.1C811.6,544.9,796.7,559.8,778.4,559.8z M36.8,28.4c-6.1,0-11.1,5-11.1,11.1v487.1
			c0,6.1,5,11.1,11.1,11.1h741.7c6.1,0,11.1-5,11.1-11.1V39.5c0-6.1-5-11.1-11.1-11.1H36.8z"/>
	</g>
	<linearGradient id="SVGID_1_" gradientUnits="userSpaceOnUse" x1="58.8896" y1="283.0456" x2="756.2758" y2="283.0456">
		<stop  offset="0" style="stop-color:#13B72A"/>
		<stop  offset="1" style="stop-color:#20D330"/>
	</linearGradient>
	<path class="st1" d="M756.3,383c-66.3,4.4-106.7,26.7-110.4,99.3H169.3c-3.7-72.5-44.2-94.9-110.4-99.3v-200
		c66.3-4.4,106.7-26.7,110.4-99.3h476.6c3.4,67.9,38.4,114.9,110.4,121.3L756.3,383L756.3,383z"/>
	<g>
		<path class="st2" d="M443.2,354.2c-2.7,0-5.5-1-7.6-3L328.2,250l-58.9,68.7c-4,4.7-11,5.2-15.6,1.2c-4.6-4-5.2-11-1.2-15.6
			l66.4-77.5c2-2.3,4.8-3.7,7.8-3.8c3.1-0.1,6,0.9,8.2,3l108,101.6l109-112.4c4.3-4.4,11.3-4.5,15.7-0.2c4.4,4.3,4.5,11.3,0.2,15.7
			L451.2,350.8C449,353.1,446.1,354.2,443.2,354.2z"/>
	</g>
	<g>
		<circle class="st0" cx="728.6" cy="460.2" r="22.1"/>
		<circle class="st0" cx="728.6" cy="117" r="22.1"/>
	</g>
	<g>
		<circle class="st0" cx="86.6" cy="460.2" r="22.1"/>
		<circle class="st0" cx="86.6" cy="117" r="22.1"/>
	</g>
</g>
</svg>
