<svg id="Layer_1" xmlns="http://www.w3.org/2000/svg" viewBox="0 0 816 561.1">
  <style>
    .st0{fill:#333333;} .st1{fill:url(#SVGID_1_);} .st2{fill:#FFFFFF;}
  </style>
  <path class="st0" d="M778.4 559.8H36.8c-18.3 0-33.2-14.9-33.2-33.2V39.5c0-18.3 14.9-33.2 33.2-33.2h741.7c18.3 0 33.2 14.9 33.2 33.2v487.1c-.1 18.3-15 33.2-33.3 33.2zM36.8 28.4c-6.1 0-11.1 5-11.1 11.1v487.1c0 6.1 5 11.1 11.1 11.1h741.7c6.1 0 11.1-5 11.1-11.1V39.5c0-6.1-5-11.1-11.1-11.1H36.8z"/>
  <linearGradient id="SVGID_1_" gradientUnits="userSpaceOnUse" x1="58.89" y1="283.046" x2="756.276" y2="283.046">
    <stop offset="0" stop-color="#13B72A"/>
    <stop offset="1" stop-color="#20D330"/>
  </linearGradient>
  <path class="st1" d="M756.3 383c-66.3 4.4-106.7 26.7-110.4 99.3H169.3c-3.7-72.5-44.2-94.9-110.4-99.3V183c66.3-4.4 106.7-26.7 110.4-99.3h476.6c3.4 67.9 38.4 114.9 110.4 121.3v178z"/>
  <path class="st2" d="M443.2 354.2c-2.7 0-5.5-1-7.6-3L328.2 250l-58.9 68.7c-4 4.7-11 5.2-15.6 1.2s-5.2-11-1.2-15.6l66.4-77.5c2-2.3 4.8-3.7 7.8-3.8 3.1-.1 6 .9 8.2 3l108 101.6 109-112.4c4.3-4.4 11.3-4.5 15.7-.2 4.4 4.3 4.5 11.3.2 15.7L451.2 350.8c-2.2 2.3-5.1 3.4-8 3.4z"/>
  <circle class="st0" cx="728.6" cy="460.2" r="22.1"/>
  <circle class="st0" cx="728.6" cy="117" r="22.1"/>
  <g>
    <circle class="st0" cx="86.6" cy="460.2" r="22.1"/>
    <circle class="st0" cx="86.6" cy="117" r="22.1"/>
  </g>
</svg>
