<?xml version="1.0" encoding="UTF-8" standalone="no"?>
<svg width="72px" height="61px" viewBox="0 0 72 61" version="1.1" xmlns="http://www.w3.org/2000/svg" xmlns:xlink="http://www.w3.org/1999/xlink">
    <!-- Generator: Sketch 42 (36781) - http://www.bohemiancoding.com/sketch -->
    <title>wallet_icn</title>
    <desc>Created with Sketch.</desc>
    <defs>
        <linearGradient x1="50%" y1="-2.22044605e-14%" x2="50%" y2="100%" id="linearGradient-1">
            <stop stop-color="#41C5FF" offset="0%"></stop>
            <stop stop-color="#0DA7FC" offset="100%"></stop>
        </linearGradient>
    </defs>
    <g id="03_Lykke_Corp" stroke="none" stroke-width="1" fill="none" fill-rule="evenodd">
        <g id="03_lykke_corp/05a_invest" transform="translate(-615.000000, -394.000000)">
            <g id="wallet_icn" transform="translate(616.000000, 395.000000)">
                <g id="ic_ditect_ownership">
                    <path d="M0,3.98608243 C0,1.78098691 1.79201132,-0.00364593348 4.00996437,5.59354093e-06 L51.7478481,0.0785988588 C53.9624903,0.082244935 55.7578125,1.8818773 55.7578125,4.07787931 L55.7578125,50.092522 C55.7578125,52.2976175 53.9658012,54.0822504 51.7478481,54.0785989 L4.00996437,54.0000056 C1.7953222,53.9963595 0,52.1967272 0,50.0007251 L0,3.98608243 Z" id="Rectangle-3-Copy-18" stroke="#333333" stroke-width="2" stroke-linecap="round" stroke-linejoin="round" fill="#FFFFFF"></path>
                    <g id="market_making_icn" transform="translate(0.000000, 7.000000)">
                        <g id="Group-3-Copy-5">
                            <path d="M6,0 L60.0087876,0 C62.2130733,0 64,1.79867889 64,3.99976742 L64,48.0002326 C64,50.2092431 62.2046235,52 59.9965134,52 L4.00348663,52 C1.79242202,52 0,50.2013211 0,48.0002326 L0,0" id="Rectangle-3-Copy-18" stroke="#333333" stroke-width="2" stroke-linecap="round" stroke-linejoin="round" fill="#FFFFFF"></path>
                            <rect id="Rectangle-3-Copy-19" fill="url(#linearGradient-1)" x="5" y="5" width="54" height="42" rx="1"></rect>
                        </g>
                    </g>
                    <g id="Group-21" transform="translate(32.000000, 30.500000) rotate(90.000000) translate(-32.000000, -30.500000) translate(24.500000, 24.500000)" stroke="#FFFFFF" stroke-width="2" stroke-linecap="round">
                        <polyline id="Path-6-Copy" stroke-linejoin="round" transform="translate(12.000000, 6.000000) rotate(-90.000000) translate(-12.000000, -6.000000) " points="6 3 12 9 18 3"></polyline>
                        <path d="M13,6 L0.291015625,5.92651367" id="Path-7"></path>
                    </g>
                    <g id="Group-16" transform="translate(51.000000, 23.000000)" stroke="#333333" stroke-width="2" fill="#FFFFFF">
                        <path d="M18.0578013,2.99074768 C18.0594525,1.88859139 17.1588821,0.995603221 16.0611451,0.996194786 L9,1 C4.02943725,1 0,5.02943725 0,10 C0,14.9705627 4.02943725,19 9,19 L16.0289203,19 C17.1361942,19 18.0351547,18.1071351 18.0368068,17.0043695 L18.0578013,2.99074768 Z" id="Oval-5-Copy-7"></path>
                        <path d="M9,7 C7.34314575,7 6,8.34314575 6,10 C6,11.6568542 7.34314575,13 9,13 L9,13" id="Oval-4" stroke-linecap="round" stroke-linejoin="round"></path>
                    </g>
                </g>
                <path d="M23,42 L41,42" id="Path-8" stroke="#FFFFFF" stroke-width="2" stroke-linecap="round" stroke-linejoin="round"></path>
            </g>
        </g>
    </g>
</svg>