<svg xmlns="http://www.w3.org/2000/svg" width="58" height="66" viewBox="0 0 58 66">
    <g fill="none" fill-rule="evenodd">
        <path stroke="#333" stroke-width="2" d="M57 29c0 15.464-12.536 28-28 28S1 44.464 1 29 13.536 1 29 1s28 12.536 28 28z"/>
        <path fill="#0089F7" d="M52.5 28.5C52.5 41.479 41.979 52 29 52S5.5 41.479 5.5 28.5 16.021 5 29 5s23.5 10.521 23.5 23.5"/>
        <path stroke="#FFF" stroke-linecap="round" stroke-linejoin="round" stroke-width="2" d="M25 47l-3-20 7 4 7-4-3 20"/>
        <path stroke="#333" stroke-width="2" d="M36 56v5a4 4 0 0 1-4 4h-6a4 4 0 0 1-4-4v-5"/>
    </g>
</svg>
