<svg xmlns="http://www.w3.org/2000/svg" width="66" height="66" viewBox="0 0 66 66">
    <g fill="none" fill-rule="evenodd">
        <path fill="#FFF" d="M65 33c0 17.673-14.327 32-32 32C15.327 65 1 50.673 1 33 1 15.327 15.327 1 33 1c17.673 0 32 14.327 32 32"/>
        <path stroke="#333" stroke-width="2" d="M65 33c0 17.673-14.327 32-32 32C15.327 65 1 50.673 1 33 1 15.327 15.327 1 33 1c17.673 0 32 14.327 32 32z"/>
        <path fill="#0089F7" d="M60 33c0 14.912-12.088 27-27 27S6 47.912 6 33 18.088 6 33 6s27 12.088 27 27"/>
        <path stroke="#FFF" stroke-linecap="round" stroke-linejoin="round" stroke-width="2" d="M46.02 24.222a3 3 0 0 0-.117-4.354c-1.206-1.086-3.096-.917-4.245.23l-6.244 6.246-13.608-2.227a1.928 1.928 0 0 0-1.675.54l-.003.002a1.93 1.93 0 0 0 .55 3.114L29.758 32l-5.868 5.868a2.006 2.006 0 0 1-1.194.574l-3.599.4a1 1 0 0 0-.597 1.7l3.48 3.479 3.479 3.479c.591.593 1.608.236 1.7-.597l.4-3.6c.05-.45.252-.871.572-1.192L34 36.243l4.228 9.079a1.93 1.93 0 0 0 3.115.55l.002-.002c.44-.44.64-1.064.54-1.676l-2.227-13.608 6.364-6.364z"/>
    </g>
</svg>
