<svg xmlns="http://www.w3.org/2000/svg" width="22" height="24" viewBox="0 0 22 24">
    <path fill="#FF2800" fill-rule="evenodd" d="M19.516 16.06c-.268 0-.942-.131-2.217-1.123.147-.02.255-.03.326-.03 1.305 0 1.933.256 2.19.409.189.112.305.24.305.335 0 .163-.241.41-.604.41m-11.211-.422A98.164 98.164 0 0 0 9.92 9.63a48.124 48.124 0 0 0 3.531 4.289 68.978 68.978 0 0 0-5.146 1.72M8.167 3.027c0-.825.313-1.182.473-1.182.16 0 .473.357.473 1.182 0 .414-.053.996-.156 1.712-.59-1.043-.775-1.575-.79-1.712M3.716 21.982c-.128.128-.224.142-.285.142-.2 0-.488-.195-.624-.524-.118-.284-.152-.728.355-1.235.238-.238.78-.67 1.989-1.293-.663 1.727-1.158 2.633-1.435 2.91m17.063-8.295c-.754-.444-1.815-.67-3.153-.67-.423 0-1.122.115-2.085.344-1.643-1.643-3.498-3.92-5.078-6.236.36-1.822.542-3.2.542-4.098 0-4.036-4.729-4.036-4.729 0 0 .79.732 2.303 2.177 4.495a92.697 92.697 0 0 1-2.421 9.041c-2.059.902-3.473 1.73-4.207 2.464-.943.943-1.23 2.176-.764 3.297.42 1.013 1.372 1.692 2.372 1.692.605 0 1.166-.241 1.622-.696.26-.262 1.039-1.04 2.503-5.35a65.355 65.355 0 0 1 7.433-2.518c1.828 1.682 3.312 2.5 4.527 2.5 1.376 0 2.495-1.032 2.495-2.3 0-.786-.45-1.502-1.234-1.965"/>
</svg>
